SplineFontDB: 3.2
FontName: Untitled1
FullName: Untitled1
FamilyName: Untitled1
Weight: Regular
Copyright: Copyright (c) 2024, user
UComments: "2024-6-22: Created with FontForge (http://fontforge.org)"
Version: 001.000
ItalicAngle: 0
UnderlinePosition: -100
UnderlineWidth: 50
Ascent: 800
Descent: 200
InvalidEm: 0
LayerCount: 2
Layer: 0 0 "Back" 1
Layer: 1 0 "Fore" 0
XUID: [1021 330 1868491745 7828765]
OS2Version: 0
OS2_WeightWidthSlopeOnly: 0
OS2_UseTypoMetrics: 1
CreationTime: 1719029119
ModificationTime: 1719085789
OS2TypoAscent: 0
OS2TypoAOffset: 1
OS2TypoDescent: 0
OS2TypoDOffset: 1
OS2TypoLinegap: 0
OS2WinAscent: 0
OS2WinAOffset: 1
OS2WinDescent: 0
OS2WinDOffset: 1
HheadAscent: 0
HheadAOffset: 1
HheadDescent: 0
HheadDOffset: 1
OS2Vendor: 'PfEd'
Lookup: 258 0 0 "'kern' Horizontal Kerning in Latin lookup 0" { "'kern' Horizontal Kerning in Latin lookup 0-3" [150,15,2] "'kern' Horizontal Kerning in Latin lookup 0-2" [150,15,2] "'kern' Horizontal Kerning in Latin lookup 0-1" [150,15,2] } ['kern' ('DFLT' <'dflt' > 'latn' <'dflt' > ) ]
MarkAttachClasses: 1
DEI: 91125
Encoding: ISO8859-1
UnicodeInterp: none
NameList: AGL For New Fonts
DisplaySize: -48
AntiAlias: 1
FitToEm: 0
WinInfo: 0 37 18
BeginPrivate: 0
EndPrivate
BeginChars: 256 33

StartChar: A
Encoding: 65 65 0
Width: 343
Flags: HW
LayerCount: 2
Fore
SplineSet
181.8125 642.9140625 m 0
 182.430664062 642.971679688 183.025390625 643.021484375 183.659179688 643.021484375 c 0
 191.3359375 643.021484375 198.008789062 638.686523438 201.361328125 632.333984375 c 0
 255.30859375 530.043945312 275.717773438 422.641601562 289.20703125 317.06640625 c 1
 297.70703125 314.8984375 305.81640625 310.854492188 312.77734375 304.228515625 c 0
 316.606445312 300.583984375 318.989257812 295.43359375 318.989257812 289.735351562 c 0
 318.989257812 284.395507812 316.891601562 279.541992188 313.4765625 275.953125 c 0
 309.841796875 272.216796875 304.772460938 269.8984375 299.153320312 269.8984375 c 0
 297.669921875 269.8984375 296.224609375 270.060546875 294.833984375 270.3671875 c 1
 304.538085938 185.630859375 312.291992188 102.737304688 332.03125 25.423828125 c 0
 332.435546875 23.8388671875 332.64453125 22.1884765625 332.64453125 20.4775390625 c 0
 332.64453125 11.150390625 326.24609375 3.3046875 317.6015625 1.09765625 c 0
 316.016601562 0.693359375 314.366210938 0.484375 312.65625 0.484375 c 0
 303.327148438 0.484375 295.482421875 6.884765625 293.275390625 15.529296875 c 0
 271.645507812 100.24609375 263.255859375 188.130859375 252.927734375 275.6796875 c 1
 240.52734375 272.073242188 225.198242188 266.12890625 208.130859375 260.150390625 c 0
 177.77734375 249.516601562 140.205078125 239.20703125 100.546875 246.04296875 c 1
 79.5009765625 165.4140625 58.2900390625 84.7734375 34.197265625 2.333984375 c 0
 31.7685546875 -5.9755859375 24.0927734375 -12.0517578125 15.0029296875 -12.0517578125 c 0
 13.0546875 -12.0517578125 11.171875 -11.7724609375 9.390625 -11.251953125 c 0
 1.080078125 -8.82421875 -4.9970703125 -1.1474609375 -4.9970703125 7.9423828125 c 0
 -4.9970703125 9.890625 -4.7177734375 11.7744140625 -4.197265625 13.5546875 c 0
 19.9052734375 96.0302734375 41.1455078125 177.051757812 62.30078125 258.27734375 c 1
 58.6005859375 260.0546875 54.8974609375 262.010742188 51.193359375 264.177734375 c 0
 45.2587890625 267.6484375 41.3037109375 274.09765625 41.3037109375 281.462890625 c 0
 41.3037109375 285.135742188 42.2958984375 288.579101562 44.02734375 291.5390625 c 0
 47.498046875 297.47265625 53.947265625 301.427734375 61.3125 301.427734375 c 0
 64.986328125 301.427734375 68.4306640625 300.434570312 71.390625 298.703125 c 0
 71.826171875 298.448242188 72.2587890625 298.219726562 72.693359375 297.97265625 c 1
 100.798828125 405.97265625 129.387695312 514.88671875 164.560546875 628.8984375 c 0
 166.90234375 636.486328125 173.658203125 642.15234375 181.8125 642.9140625 c 0
187.8515625 567.130859375 m 1
 159.362304688 470.90234375 134.927734375 377.586914062 110.677734375 284.5625 c 1
 139.381835938 280.243164062 167.126953125 288.168945312 194.90625 297.900390625 c 0
 213.072265625 304.264648438 230.491210938 311.482421875 247.99609375 315.8046875 c 1
 236.912109375 401.53515625 221.712890625 486.42578125 187.8515625 567.130859375 c 1
EndSplineSet
EndChar

StartChar: B
Encoding: 66 66 2
Width: 470
Flags: HW
LayerCount: 2
Fore
SplineSet
229.7734375 644.470703125 m 0
 241.446289062 644.3359375 252.819335938 643.587890625 263.767578125 642.16796875 c 0
 307.561523438 636.489257812 346.979492188 619.296875 365.28515625 583.236328125 c 0
 375.084960938 563.930664062 376.201171875 542.350585938 371.314453125 522.16015625 c 0
 366.427734375 501.969726562 356.079101562 482.654296875 342.57421875 463.802734375 c 0
 322.362304688 435.588867188 294.802734375 408.201171875 264.751953125 382.591796875 c 1
 285.212890625 386.974609375 305.799804688 389.439453125 325.833984375 388.685546875 c 0
 344.072265625 387.999023438 361.850585938 384.678710938 378.6484375 377.806640625 c 0
 423.444335938 359.48046875 456.390625 314.163085938 464.51171875 240.150390625 c 0
 472.938476562 163.344726562 449.309570312 106.346679688 408.751953125 69.5 c 0
 368.194335938 32.6533203125 313.283203125 15.298828125 258.91796875 7.2109375 c 0
 197.147460938 -1.978515625 135.590820312 0.9755859375 93.322265625 5.19921875 c 1
 94.71875 -4.6943359375 96.310546875 -14.58203125 98.177734375 -24.466796875 c 0
 98.40625 -25.6748046875 98.5087890625 -26.9052734375 98.5087890625 -28.1796875 c 0
 98.5087890625 -37.943359375 91.4970703125 -46.0830078125 82.23828125 -47.83203125 c 0
 81.0302734375 -48.060546875 79.7998046875 -48.1630859375 78.525390625 -48.1630859375 c 0
 68.76171875 -48.1630859375 60.6220703125 -41.1513671875 58.873046875 -31.892578125 c 0
 56.197265625 -17.7275390625 54.005859375 -3.6669921875 52.173828125 10.302734375 c 1
 44.943359375 11.4423828125 39.8984375 12.333984375 39.8984375 12.333984375 c 2
 30.64453125 14.0869140625 23.62109375 22.20703125 23.62109375 31.9677734375 c 0
 23.62109375 33.24609375 23.7412109375 34.4951171875 23.970703125 35.70703125 c 0
 25.7236328125 44.9609375 33.84375 51.984375 43.6044921875 51.984375 c 0
 44.8828125 51.984375 46.1337890625 51.8642578125 47.345703125 51.634765625 c 2
 47.345703125 51.634765625 47.7392578125 51.5732421875 47.74609375 51.572265625 c 1
 41.9677734375 117.98828125 42.3095703125 182.440429688 37.330078125 245.87109375 c 0
 35.642578125 247.3125 34.220703125 249.002929688 33.087890625 250.92578125 c 0
 31.546875 253.759765625 30.6669921875 257.043945312 30.6669921875 260.495117188 c 0
 30.6669921875 265.099609375 32.2265625 269.342773438 34.845703125 272.724609375 c 0
 29.888671875 319.184570312 21.1748046875 365.172851562 3.98828125 411.0546875 c 0
 3.171875 413.235351562 2.708984375 415.598632812 2.708984375 418.0625 c 0
 2.708984375 426.635742188 8.115234375 433.95703125 15.701171875 436.798828125 c 0
 17.8828125 437.616210938 20.2353515625 438.071289062 22.701171875 438.071289062 c 0
 23.826171875 438.071289062 24.9306640625 437.977539062 26.005859375 437.798828125 c 0
 33.119140625 436.61328125 38.978515625 431.676757812 41.447265625 425.0859375 c 0
 57.4228515625 382.435546875 66.78125 340.35546875 72.564453125 298.69921875 c 1
 85.53125 306.774414062 101.97265625 316.528320312 121.626953125 326.998046875 c 0
 148.654296875 344.556640625 179.458984375 365.770507812 209.1796875 388.9375 c 0
 249.19921875 420.1328125 287.020507812 454.943359375 310.056640625 487.09765625 c 0
 321.57421875 503.174804688 329.272460938 518.493164062 332.4375 531.5703125 c 0
 335.602539062 544.647460938 334.776367188 554.96875 329.6171875 565.130859375 c 0
 319.657226562 584.751953125 295.33984375 597.739257812 258.625 602.5 c 0
 221.91015625 607.260742188 175.190429688 603.020507812 129.361328125 591.83203125 c 0
 83.5322265625 580.643554688 38.4541015625 562.5546875 4.3984375 541.287109375 c 0
 -29.6572265625 520.01953125 -51.2314453125 495.421875 -55.666015625 476.111328125 c 0
 -59.6279296875 458.862304688 -47.701171875 434.98828125 -47.701171875 434.98828125 c 2
 -45.9599609375 432.022460938 -44.927734375 428.560546875 -44.927734375 424.875976562 c 0
 -44.927734375 417.522460938 -48.9052734375 411.08984375 -54.82421875 407.615234375 c 0
 -57.7900390625 405.874023438 -61.251953125 404.841796875 -64.9365234375 404.841796875 c 0
 -72.2900390625 404.841796875 -78.72265625 408.819335938 -82.197265625 414.73828125 c 2
 -82.197265625 414.73828125 -103.345703125 447.203125 -94.650390625 485.064453125 c 0
 -86.189453125 521.90625 -55.5576171875 551.00390625 -16.7890625 575.21484375 c 0
 21.9794921875 599.42578125 70.341796875 618.598632812 119.875 630.69140625 c 0
 157.024414062 639.760742188 194.754882812 644.875976562 229.7734375 644.470703125 c 0
316.716796875 348.474609375 m 0
 294.41015625 348.20703125 269.736328125 343.678710938 244.76171875 336.134765625 c 0
 207.68359375 324.934570312 170.790039062 307.701171875 140.28515625 291.412109375 c 0
 114.18359375 274.5390625 92.021484375 261.284179688 77.6484375 252.935546875 c 1
 83.6298828125 183.090820312 82.5927734375 114.3203125 88.751953125 45.939453125 c 1
 128.73828125 41.5771484375 191.954101562 37.689453125 253.03125 46.775390625 c 0
 302.8671875 54.189453125 350.184570312 70.333984375 381.853515625 99.10546875 c 0
 413.522460938 127.876953125 432.120117188 168.616210938 424.75 235.7890625 c 0
 417.625976562 300.716796875 394.396484375 328.145507812 363.501953125 340.78515625 c 0
 349.985351562 346.314453125 334.06640625 348.682617188 316.716796875 348.474609375 c 0
EndSplineSet
EndChar

StartChar: C
Encoding: 67 67 3
Width: 442
Flags: HW
LayerCount: 2
Fore
SplineSet
323.765625 643.0078125 m 0
 357.341796875 642.396484375 391.5078125 632.993164062 424.779296875 612.607421875 c 0
 430.518554688 609.08984375 434.326171875 602.7734375 434.326171875 595.5546875 c 0
 434.326171875 593.553710938 434.032226562 591.622070312 433.484375 589.798828125 c 0
 427.895507812 571.200195312 422.305664062 552.602539062 416.716796875 534.00390625 c 0
 414.2421875 525.768554688 406.6015625 519.763671875 397.564453125 519.763671875 c 0
 395.563476562 519.763671875 393.631835938 520.057617188 391.80859375 520.60546875 c 0
 383.573242188 523.080078125 377.568359375 530.720703125 377.568359375 539.7578125 c 0
 377.568359375 541.758789062 377.862304688 543.690429688 378.41015625 545.513671875 c 0
 382.461914062 558.99609375 386.512695312 572.48046875 390.564453125 585.962890625 c 1
 321.2265625 621.493164062 254.0234375 602.177734375 193.0625 552.052734375 c 0
 128.20703125 498.724609375 74.951171875 409.197265625 52.2734375 320.341796875 c 0
 29.595703125 231.486328125 37.6806640625 145.615234375 85.7578125 94.275390625 c 0
 133.236328125 43.57421875 224.298828125 19.6123046875 383.08203125 62.869140625 c 0
 385.64453125 65.9677734375 388.20703125 69.0654296875 390.76953125 72.1640625 c 1
 383.09765625 76.876953125 375.424804688 81.58984375 367.75390625 86.302734375 c 0
 362.025390625 89.822265625 358.235351562 96.1552734375 358.235351562 103.365234375 c 0
 358.235351562 107.193359375 359.313476562 110.771484375 361.181640625 113.8125 c 0
 364.701171875 119.541015625 371.034179688 123.331054688 378.244140625 123.331054688 c 0
 382.072265625 123.331054688 385.650390625 122.252929688 388.69140625 120.384765625 c 0
 402.900390625 111.655273438 417.109375 102.92578125 431.318359375 94.197265625 c 0
 437.046875 90.677734375 440.841796875 84.353515625 440.841796875 77.142578125 c 0
 440.841796875 72.3076171875 439.122070312 67.8701171875 436.26171875 64.41015625 c 0
 427.438476562 53.7421875 418.616210938 43.0732421875 409.79296875 32.404296875 c 0
 407.23046875 29.3046875 403.75390625 27.0048828125 399.775390625 25.890625 c 0
 229.778320312 -21.73046875 117.954101562 1.375 56.560546875 66.935546875 c 0
 -4.8330078125 132.49609375 -11.2314453125 233.267578125 13.515625 330.232421875 c 0
 38.2626953125 427.197265625 94.3447265625 522.666992188 167.658203125 582.94921875 c 0
 213.479492188 620.625976562 267.8046875 644.02734375 323.765625 643.0078125 c 0
EndSplineSet
EndChar

StartChar: a
Encoding: 97 97 5
Width: 498
Flags: W
HStem: 27.7969 39.9941<311.856 440.93> 63 38.0967<486.685 496.055> 312.648 39.4453<234.07 243.342>
VStem: 266.569 39.9951<273.913 315.874>
LayerCount: 2
Fore
SplineSet
204.731445312 356.1796875 m 2xb0
 228.30078125 355.703125 243.352539062 352.09375 243.352539062 352.09375 c 2
 252.1328125 349.981445312 258.673828125 342.083007812 258.673828125 332.659179688 c 0
 258.673828125 331.044921875 258.481445312 329.474609375 258.120117188 327.970703125 c 0
 256.008789062 319.190429688 248.109375 312.6484375 238.684570312 312.6484375 c 0
 237.071289062 312.6484375 235.501953125 312.83984375 233.999023438 313.201171875 c 2
 233.999023438 313.201171875 150.438476562 333.37109375 76.6357421875 274.53125 c 1
 76.6357421875 274.533203125 l 1
 50.865234375 253.987304688 36.8251953125 206.70703125 39.9150390625 158.51171875 c 0
 43.00390625 110.317382812 63.3046875 64.15625 89.8212890625 46.4921875 c 1
 89.8232421875 46.4921875 l 1
 108.34765625 34.154296875 125.396484375 37.0263671875 149.194335938 51.935546875 c 0
 172.993164062 66.8447265625 199.1171875 94.740234375 222.045898438 125.62890625 c 0
 236.063476562 144.513671875 248.78515625 164.325195312 259.918945312 183.044921875 c 1
 262.443359375 210.9921875 265.419921875 246.240234375 266.569335938 296.337890625 c 0
 266.817382812 307.162109375 275.673828125 315.880859375 286.556640625 315.880859375 c 0
 286.711914062 315.880859375 286.8671875 315.87890625 287.022460938 315.875 c 0
 297.845703125 315.627929688 306.564453125 306.771484375 306.564453125 295.888671875 c 0
 306.564453125 295.731445312 306.563476562 295.576171875 306.559570312 295.419921875 c 0
 306.375976562 287.40234375 306.095703125 280.12109375 305.829101562 272.744140625 c 1
 308.1640625 274.833007812 311.0078125 276.381835938 314.131835938 277.193359375 c 0
 315.572265625 277.5234375 317.059570312 277.6875 318.599609375 277.6875 c 0
 328.09765625 277.6875 336.057617188 271.051757812 338.094726562 262.16796875 c 0
 339.701171875 255.162109375 338.44140625 253.682617188 338.008789062 251.646484375 c 0
 337.576171875 249.610351562 337.067382812 247.938476562 336.469726562 246.1328125 c 0
 335.2734375 242.522460938 333.688476562 238.516601562 331.657226562 233.787109375 c 0
 327.59375 224.328125 321.758789062 212.15625 314.375976562 198.142578125 c 0
 309.858398438 189.567382812 304.706054688 180.270507812 299.114257812 170.615234375 c 1
 297.497070312 152.852539062 296.133789062 138.041992188 296.047851562 127.837890625 c 0
 295.935546875 114.435546875 297.31640625 107.854492188 300.924804688 101.236328125 c 0
 304.533203125 94.6181640625 311.767578125 86.6767578125 325.823242188 75.064453125 c 0
 331.201171875 70.6220703125 342.016601562 67.5185546875 356.907226562 67.791015625 c 0xb0
 371.797851562 68.0634765625 389.749023438 71.478515625 406.651367188 76.1328125 c 0
 440.45703125 85.443359375 469.575195312 99.15625 469.575195312 99.15625 c 2
 472.165039062 100.381835938 475.06640625 101.096679688 478.119140625 101.096679688 c 0
 486.104492188 101.096679688 493.002929688 96.40625 496.208007812 89.6328125 c 0
 497.43359375 87.04296875 498.147460938 84.142578125 498.147460938 81.0888671875 c 0
 498.147460938 73.103515625 493.458007812 66.205078125 486.684570312 63 c 2x70
 486.684570312 63 455.0859375 47.982421875 417.272460938 37.568359375 c 0
 398.366210938 32.361328125 377.78125 28.1650390625 357.637695312 27.796875 c 0
 337.494140625 27.4287109375 316.775390625 30.6552734375 300.346679688 44.228515625 c 0
 284.783203125 57.0869140625 273.375 68.20703125 265.805664062 82.091796875 c 0
 261.609375 89.7900390625 259.06640625 97.958984375 257.620117188 106.564453125 c 1
 256.462890625 104.974609375 255.338867188 103.37109375 254.165039062 101.7890625 c 0
 229.588867188 68.6796875 201.635742188 37.587890625 170.428710938 18.037109375 c 0
 139.221679688 -1.5126953125 100.336914062 -8.5732421875 67.6474609375 13.201171875 c 0
 24.4091796875 42.0029296875 3.6435546875 99.0693359375 -0.0029296875 155.953125 c 0
 -3.6494140625 212.836914062 9.90625 272.487304688 51.7001953125 305.80859375 c 0
 101.731445312 345.6953125 156.116210938 355.35546875 194.127929688 356.171875 c 0
 197.823242188 356.251953125 201.364257812 356.248046875 204.731445312 356.1796875 c 2xb0
EndSplineSet
EndChar

StartChar: b
Encoding: 98 98 6
Width: 439
Flags: HW
LayerCount: 2
Fore
SplineSet
-14.5439453125 611.9296875 m 0
 -13.853515625 612.001953125 -13.171875 612.017578125 -12.4619140625 612.017578125 c 0
 -2.1337890625 612.017578125 6.376953125 604.170898438 7.4287109375 594.119140625 c 0
 22.5849609375 449.293945312 32.0458984375 326.435546875 37.0615234375 220.607421875 c 1
 55.453125 245.41796875 79.458984375 267.54296875 106.805664062 285.8359375 c 0
 154.565429688 317.783203125 213.735351562 338.4609375 271.965820312 338.0078125 c 0
 317.255859375 337.655273438 361.977539062 324.520507812 400.323242188 293.9609375 c 0
 423.708984375 275.323242188 435.470703125 247.9609375 437.297851562 219.798828125 c 0
 439.125 191.63671875 431.935546875 162.20703125 418.532226562 134.396484375 c 0
 391.725585938 78.775390625 339.494140625 28.2705078125 273.022460938 14.037109375 c 0
 233.108398438 5.490234375 182.245117188 -1.2265625 135.850585938 0.189453125 c 0
 99.970703125 1.28515625 65.150390625 5.947265625 40.9404296875 23.703125 c 1
 39.783203125 13.8115234375 31.392578125 6.0947265625 21.2080078125 6.02734375 c 0
 10.25390625 6.1259765625 1.388671875 15.0458984375 1.388671875 26.0234375 c 0
 1.388671875 26.0849609375 1.388671875 26.1474609375 1.3896484375 26.208984375 c 0
 1.607421875 50.1943359375 1.373046875 75.9541015625 0.9208984375 102.568359375 c 0
 -0.0830078125 111.33203125 -0.2216796875 120.114257812 0.4189453125 128.833984375 c 0
 -2.630859375 251.857421875 -12.7314453125 402.462890625 -32.3525390625 589.955078125 c 0
 -32.4248046875 590.646484375 -32.4404296875 591.329101562 -32.4404296875 592.0390625 c 0
 -32.4404296875 602.3671875 -24.595703125 610.876953125 -14.5439453125 611.9296875 c 0
269.977539062 297.85546875 m 0
 221.272460938 297.919921875 170.771484375 280.499023438 129.045898438 252.587890625 c 0
 91.9560546875 227.778320312 62.841796875 194.973632812 49.0400390625 161.84375 c 0
 44.7216796875 151.4765625 41.76953125 141.201171875 40.3857421875 131.001953125 c 0
 40.6357421875 121.040039062 40.783203125 111.466796875 40.9423828125 101.8515625 c 0
 43.18359375 89.396484375 48.0888671875 77.03125 56.1083984375 64.724609375 c 0
 64.0615234375 52.51953125 95.533203125 41.4375 137.071289062 40.169921875 c 0
 178.609375 38.90234375 227.43359375 45.181640625 264.647460938 53.150390625 c 0
 315.904296875 64.1259765625 360.544921875 106.208007812 382.499023438 151.76171875 c 0
 393.4765625 174.538085938 398.638671875 197.842773438 397.381835938 217.2109375 c 0
 396.125 236.579101562 389.370117188 251.54296875 375.395507812 262.6796875 c 0
 344.65625 287.176757812 307.859375 297.805664062 269.977539062 297.85546875 c 0
EndSplineSet
EndChar

StartChar: c
Encoding: 99 99 7
Width: 358
Flags: HW
LayerCount: 2
Fore
SplineSet
262.25 358.7109375 m 0
 280.203125 358.569335938 298.283203125 356.079101562 316.197265625 350.845703125 c 0
 330.265625 346.736328125 342.6953125 335.357421875 347.916015625 321.8203125 c 0
 353.13671875 308.283203125 353.51171875 293.78125 352.427734375 276.552734375 c 0
 351.770507812 266.106445312 343.094726562 257.807617188 332.484375 257.807617188 c 0
 332.056640625 257.807617188 331.631835938 257.821289062 331.2109375 257.84765625 c 0
 320.765625 258.505859375 312.467773438 267.180664062 312.467773438 277.791015625 c 0
 312.467773438 278.21875 312.481445312 278.643554688 312.5078125 279.064453125 c 0
 313.426757812 293.66015625 312.165039062 303.359375 310.595703125 307.427734375 c 0
 309.026367188 311.49609375 309.516601562 311.125976562 304.98046875 312.451171875 c 0
 240.219726562 331.369140625 167.444335938 304.4375 114.224609375 258.232421875 c 0
 61.0048828125 212.02734375 31.2275390625 148.419921875 42.830078125 103.6796875 c 0
 46.9482421875 87.7998046875 60.5908203125 73.056640625 82.50390625 61.5 c 0
 104.416992188 49.943359375 133.637695312 42.38671875 163.177734375 40.484375 c 0
 192.717773438 38.58203125 222.561523438 42.33984375 245.6796875 51.3828125 c 0
 268.797851562 60.42578125 284.352539062 73.8125 291.013671875 91.501953125 c 0
 293.864257812 99.072265625 301.177734375 104.448242188 309.740234375 104.448242188 c 0
 312.216796875 104.448242188 314.588867188 103.997070312 316.779296875 103.171875 c 0
 324.348632812 100.321289062 329.723632812 93.0078125 329.723632812 84.4462890625 c 0
 329.723632812 81.96875 329.272460938 79.5966796875 328.447265625 77.40625 c 0
 316.846679688 46.599609375 290.484375 25.9599609375 260.25 14.1328125 c 0
 230.015625 2.3056640625 195.0703125 -1.6533203125 160.607421875 0.56640625 c 0
 126.14453125 2.7861328125 92.146484375 11.193359375 63.845703125 26.119140625 c 0
 35.544921875 41.044921875 11.9775390625 63.3076171875 4.111328125 93.638671875 c 0
 -13.4111328125 161.206054688 27.044921875 235.512695312 88.001953125 288.435546875 c 0
 133.719726562 328.127929688 193.155273438 356.84375 254.564453125 358.62890625 c 0
 257.123046875 358.703125 259.685546875 358.731445312 262.25 358.7109375 c 0
EndSplineSet
EndChar

StartChar: D
Encoding: 68 68 8
Width: 480
Flags: HW
LayerCount: 2
Fore
SplineSet
101.359375 642.919921875 m 0
 109.809570312 643.022460938 118.096679688 643.017578125 126.224609375 642.908203125 c 0
 234.59765625 641.448242188 314.54296875 621.321289062 371.408203125 587.55859375 c 0
 462.392578125 533.5390625 489.072265625 442.1484375 470.29296875 352.62890625 c 0
 451.513671875 263.109375 391.216796875 173.083984375 311.32421875 105.912109375 c 0
 231.431640625 38.740234375 131.088867188 -5.9091796875 30.427734375 1.435546875 c 0
 20.076171875 2.1904296875 11.8818359375 10.8212890625 11.8818359375 21.3642578125 c 0
 11.8818359375 21.8603515625 11.900390625 22.3515625 11.935546875 22.837890625 c 0
 12.69140625 33.1884765625 21.322265625 41.3818359375 31.8642578125 41.3818359375 c 0
 32.3603515625 41.3818359375 32.8515625 41.36328125 33.337890625 41.328125 c 0
 120.161132812 34.9931640625 211.697265625 74.4091796875 285.58203125 136.529296875 c 0
 359.466796875 198.649414062 414.844726562 283.141601562 431.14453125 360.841796875 c 0
 447.444335938 438.541992188 428.609375 507.078125 350.98828125 553.1640625 c 0
 294.514648438 586.693359375 203.944335938 606.904296875 71.78125 601.771484375 c 1
 72.4736328125 600.51953125 73.0458984375 599.161132812 73.458984375 597.763671875 c 0
 112.581054688 405.05078125 105.645507812 234.494140625 126.078125 78.759765625 c 0
 126.190429688 77.9013671875 126.227539062 77.0458984375 126.227539062 76.1572265625 c 0
 126.227539062 66.0078125 118.650390625 57.6142578125 108.849609375 56.328125 c 0
 107.991210938 56.2158203125 107.135742188 56.1787109375 106.247070312 56.1787109375 c 0
 96.09765625 56.1787109375 87.705078125 63.7548828125 86.41796875 73.5546875 c 0
 65.3564453125 234.083007812 72.271484375 402.552734375 34.2578125 589.8046875 c 0
 34.07421875 590.893554688 33.9853515625 591.998046875 33.9853515625 593.138671875 c 0
 33.9853515625 595.459960938 34.380859375 597.688476562 35.109375 599.76171875 c 1
 -4.6513671875 596.96875 -47.6533203125 592.15234375 -94.48046875 584.7734375 c 0
 -95.5009765625 584.612304688 -96.5283203125 584.548828125 -97.59375 584.548828125 c 0
 -107.567382812 584.548828125 -115.844726562 591.865234375 -117.349609375 601.41796875 c 0
 -117.510742188 602.438476562 -117.57421875 603.465820312 -117.57421875 604.53125 c 0
 -117.57421875 614.50390625 -110.258789062 622.78125 -100.70703125 624.287109375 c 0
 -24.8896484375 636.233398438 42.208984375 642.201171875 101.359375 642.919921875 c 0
EndSplineSet
EndChar

StartChar: E
Encoding: 69 69 9
Width: 378
Flags: HW
LayerCount: 2
Fore
SplineSet
330.021484375 642.81640625 m 0
 337.196289062 641.83984375 343.178710938 637.0625 345.833984375 630.572265625 c 0
 346.788085938 628.239257812 347.3359375 625.682617188 347.3359375 623.0078125 c 0
 347.3359375 614.64453125 342.19140625 607.47265625 334.896484375 604.48828125 c 0
 279.573242188 581.85546875 208.33984375 580.750976562 151.958984375 574.3828125 c 0
 123.768554688 571.19921875 99.4169921875 566.571289062 84.9375 559.962890625 c 0
 70.4580078125 553.354492188 67.0576171875 549.6953125 67.19140625 538.173828125 c 0
 68.0380859375 465.057617188 63.3447265625 373.77734375 65.822265625 286.87890625 c 1
 101.291015625 287.38671875 131.411132812 295.4921875 164.095703125 304.8359375 c 0
 201.336914062 315.482421875 241.745117188 327.747070312 292.712890625 329.10546875 c 0
 299.994140625 329.299804688 307.491210938 329.272460938 315.224609375 328.984375 c 0
 325.913085938 328.586914062 334.48046875 319.794921875 334.48046875 309.009765625 c 0
 334.48046875 308.756835938 334.4765625 308.504882812 334.466796875 308.25390625 c 0
 334.069335938 297.565429688 325.27734375 288.998046875 314.4921875 288.998046875 c 0
 314.240234375 288.998046875 313.98828125 289.001953125 313.73828125 289.01171875 c 0
 258.674804688 291.060546875 218.127929688 278.680664062 175.08984375 266.376953125 c 0
 142.379882812 257.026367188 108.068359375 247.783203125 67.59375 246.955078125 c 1
 72.6201171875 163.70703125 87.375 88.8876953125 118.017578125 45.138671875 c 1
 148.180664062 59.83203125 181.198242188 85.8017578125 217.908203125 102.998046875 c 0
 238.985351562 112.87109375 262.114257812 119.811523438 286.9765625 117.603515625 c 0
 311.838867188 115.395507812 337.201171875 103.630859375 361.181640625 80.912109375 c 0
 365.030273438 77.265625 367.426757812 72.1015625 367.426757812 66.38671875 c 0
 367.426757812 61.0625 365.342773438 56.2216796875 361.9453125 52.63671875 c 0
 358.298828125 48.7880859375 353.135742188 46.392578125 347.420898438 46.392578125 c 0
 342.09765625 46.392578125 337.256835938 48.4765625 333.671875 51.873046875 c 0
 314.635742188 69.9072265625 298.719726562 76.40234375 283.4375 77.759765625 c 0
 268.155273438 79.1171875 252.275390625 74.92578125 234.875 66.775390625 c 0
 200.075195312 50.474609375 162.544921875 18.1884765625 118.71484375 1.8984375 c 0
 116.546875 1.0927734375 114.197265625 0.63671875 111.750976562 0.63671875 c 0
 105.791015625 0.63671875 100.4375 3.248046875 96.771484375 7.388671875 c 0
 47.3447265625 63.2177734375 32.595703125 153.178710938 27.3671875 248.923828125 c 0
 27.3369140625 248.927734375 27.3076171875 248.9296875 27.27734375 248.93359375 c 0
 17.3603515625 250.11328125 9.638671875 258.541015625 9.638671875 268.772460938 c 0
 9.638671875 269.579101562 9.6865234375 270.375 9.779296875 271.15625 c 0
 10.8046875 279.772460938 17.333984375 286.736328125 25.736328125 288.408203125 c 1
 23.33203125 376.818359375 28.0087890625 467.47265625 27.1953125 537.7109375 c 0
 26.880859375 564.865234375 45.8701171875 586.1015625 68.328125 596.3515625 c 0
 90.7861328125 606.6015625 117.918945312 610.79296875 147.470703125 614.130859375 c 0
 206.57421875 620.806640625 275.854492188 623.5546875 319.75 641.51171875 c 0
 322.08203125 642.465820312 324.625976562 643 327.299804688 643 c 0
 328.22265625 643 329.131835938 642.9375 330.021484375 642.81640625 c 0
EndSplineSet
EndChar

StartChar: F
Encoding: 70 70 10
Width: 310
Flags: HW
LayerCount: 2
Fore
SplineSet
275.416015625 642.962890625 m 0
 275.825195312 642.98828125 276.2421875 642.987304688 276.657226562 642.987304688 c 0
 280.547851562 642.987304688 284.180664062 641.874023438 287.25390625 639.94921875 c 0
 296.264648438 634.3046875 298.483398438 627.51953125 300.373046875 622.095703125 c 0
 302.262695312 616.671875 303.176757812 611.590820312 303.830078125 606.90234375 c 0
 305.13671875 597.525390625 305.150390625 589.326171875 305.150390625 589.326171875 c 2
 305.150390625 589.284179688 305.1484375 589.245117188 305.1484375 589.203125 c 0
 305.1484375 578.20703125 296.254882812 569.271484375 285.275390625 569.203125 c 0
 285.233398438 569.203125 285.194335938 569.205078125 285.15234375 569.205078125 c 0
 274.15625 569.205078125 265.220703125 578.098632812 265.15234375 589.078125 c 0
 265.15234375 589.078125 265.079101562 595.166992188 264.212890625 601.3828125 c 0
 264.18359375 601.595703125 264.133789062 601.688476562 264.1015625 601.900390625 c 0
 223.741210938 598.029296875 194.6953125 588.889648438 158.58203125 578.583984375 c 0
 135.5859375 572.021484375 109.734375 565.172851562 77.642578125 559.447265625 c 1
 81.7001953125 481.659179688 83.3291015625 402.733398438 86.970703125 325.578125 c 1
 104.594726562 321.536132812 122.412109375 322.163085938 141.982421875 325.236328125 c 0
 179.8515625 331.18359375 222.791992188 348.209960938 272.2421875 359.48046875 c 0
 273.67578125 359.807617188 275.155273438 359.96875 276.686523438 359.96875 c 0
 286.193359375 359.96875 294.159179688 353.322265625 296.1875 344.42578125 c 0
 296.514648438 342.9921875 296.67578125 341.513671875 296.67578125 339.981445312 c 0
 296.67578125 330.474609375 290.02734375 322.5078125 281.130859375 320.48046875 c 0
 235.541992188 310.08984375 192.599609375 292.6953125 148.189453125 285.720703125 c 0
 128.900390625 282.69140625 109.053710938 282.02734375 89.119140625 285.150390625 c 1
 94.517578125 193.787109375 103.994140625 105.736328125 125.49609375 26.23046875 c 0
 125.946289062 24.564453125 126.18359375 22.8203125 126.18359375 21.01171875 c 0
 126.18359375 11.7822265625 119.916992188 4.00390625 111.41015625 1.703125 c 0
 109.744140625 1.2529296875 108 1.015625 106.19140625 1.015625 c 0
 96.9619140625 1.015625 89.18359375 7.2822265625 86.8828125 15.7890625 c 0
 63.0458984375 103.928710938 53.3193359375 199.751953125 48.015625 297.5 c 1
 35.828125 303.047851562 23.7255859375 310.34375 11.82421875 319.841796875 c 0
 7.23046875 323.5078125 4.306640625 329.16015625 4.306640625 335.489257812 c 0
 4.306640625 340.198242188 5.9375 344.530273438 8.666015625 347.94921875 c 0
 12.33203125 352.541992188 17.984375 355.465820312 24.3125 355.465820312 c 0
 29.0224609375 355.465820312 33.3544921875 353.833984375 36.7734375 351.10546875 c 0
 39.80078125 348.689453125 42.7861328125 346.518554688 45.75390625 344.455078125 c 1
 42.8193359375 414.297851562 41.30859375 484.622070312 37.861328125 553.4375 c 1
 24.2705078125 551.76953125 9.7041015625 550.313476562 -6.138671875 549.16796875 c 0
 -6.62109375 549.1328125 -7.0908203125 549.133789062 -7.58203125 549.133789062 c 0
 -18.12890625 549.133789062 -26.7802734375 557.31640625 -27.529296875 567.673828125 c 0
 -27.564453125 568.15625 -27.5634765625 568.625976562 -27.5634765625 569.1171875 c 0
 -27.5634765625 579.6640625 -19.380859375 588.315429688 -9.0234375 589.064453125 c 0
 7.2333984375 590.239257812 21.966796875 591.728515625 35.591796875 593.435546875 c 0
 35.39453125 596.516601562 35.2392578125 599.627929688 35.03125 602.701171875 c 0
 35.0009765625 603.153320312 35.0029296875 603.591796875 35.0029296875 604.051757812 c 0
 35.0029296875 614.630859375 43.234375 623.302734375 53.63671875 624.005859375 c 0
 54.0888671875 624.036132812 54.5283203125 624.034179688 54.9873046875 624.034179688 c 0
 65.56640625 624.034179688 74.2373046875 615.803710938 74.94140625 605.40234375 c 0
 75.0712890625 603.478515625 75.1689453125 601.537109375 75.294921875 599.611328125 c 1
 103.319335938 604.81640625 126.202148438 610.94140625 147.603515625 617.048828125 c 0
 187.016601562 628.296875 222.915039062 639.748046875 275.416015625 642.962890625 c 0
262.24609375 609.50390625 m 0
 262.326171875 609.471679688 262.475585938 609.286132812 262.59765625 608.935546875 c 0
 262.60546875 608.912109375 262.6171875 608.833007812 262.625 608.80859375 c 1
 262.28515625 609.248046875 262.141601562 609.545898438 262.24609375 609.50390625 c 0
EndSplineSet
EndChar

StartChar: G
Encoding: 71 71 11
Width: 504
Flags: HW
LayerCount: 2
Fore
SplineSet
283.2578125 642.956054688 m 0
 310.045898438 643.34765625 335.645507812 641.077148438 358.4375 636.872070312 c 0
 366.876953125 635.315429688 376.686523438 629.301757812 381.064453125 620.872070312 c 0
 385.44140625 612.443359375 385.158203125 604.7421875 384.416015625 598.163085938 c 0
 382.9296875 585.005859375 378.43359375 572.890625 374.701171875 559.190429688 c 0
 372.387695312 550.702148438 364.626953125 544.451171875 355.41015625 544.451171875 c 0
 353.587890625 544.451171875 351.823242188 544.694335938 350.146484375 545.151367188 c 0
 341.657226562 547.46484375 335.40625 555.225585938 335.40625 564.443359375 c 0
 335.40625 566.264648438 335.650390625 568.029296875 336.107421875 569.706054688 c 0
 339.572265625 582.422851562 342.456054688 592.424804688 343.751953125 598.690429688 c 1
 263.986328125 611.168945312 145.62109375 594.671875 84.380859375 522.172851562 c 0
 52.810546875 484.799804688 34.1279296875 432.53125 41.5546875 356.223632812 c 0
 48.98046875 279.916992188 83.4921875 179.966796875 159.4140625 52.6474609375 c 0
 164.2890625 44.47265625 168.326171875 42.0224609375 174.216796875 40.6884765625 c 0
 180.106445312 39.35546875 189.1328125 40.0556640625 200.82421875 44.3134765625 c 0
 224.205078125 52.830078125 256.049804688 75.0576171875 288.47265625 103.872070312 c 0
 353.317382812 161.501953125 422.1484375 244.56640625 459.564453125 293.178710938 c 0
 462.484375 296.973632812 462.44140625 298.096679688 461.810546875 301.543945312 c 0
 461.178710938 304.9921875 458.498046875 310.6875 453.580078125 316.938476562 c 0
 443.744140625 329.44140625 426.193359375 343.196289062 412.767578125 352.936523438 c 0
 412.596679688 353.060546875 403.126953125 355.994140625 388.2421875 354.561523438 c 0
 373.356445312 353.12890625 353.8359375 348.859375 332.876953125 343.040039062 c 0
 290.958007812 331.40234375 243.185546875 313.78515625 207.18359375 301.827148438 c 0
 205.202148438 301.169921875 203.0859375 300.805664062 200.885742188 300.805664062 c 0
 192.047851562 300.805664062 184.541992188 306.549804688 181.900390625 314.504882812 c 0
 181.2421875 316.486328125 180.877929688 318.602539062 180.877929688 320.803710938 c 0
 180.877929688 329.640625 186.62109375 337.146484375 194.576171875 339.788085938 c 0
 229.426757812 351.364257812 277.818359375 369.265625 322.17578125 381.581054688 c 0
 344.353515625 387.739257812 365.499023438 392.556640625 384.41015625 394.375976562 c 0
 403.3203125 396.196289062 420.7734375 396.548828125 436.2578125 385.313476562 c 0
 450.318359375 375.112304688 470.255859375 360.434570312 485.017578125 341.670898438 c 0
 492.397460938 332.2890625 498.794921875 321.643554688 501.15625 308.747070312 c 0
 503.516601562 295.8515625 500.379882812 280.627929688 491.263671875 268.782226562 c 0
 452.860351562 218.887695312 383.58984375 134.892578125 315.044921875 73.9736328125 c 0
 280.771484375 43.5146484375 247.09765625 18.59765625 214.513671875 6.7294921875 c 0
 198.221679688 0.7958984375 181.654296875 -2.0068359375 165.384765625 1.6767578125 c 0
 149.114257812 5.361328125 134.426757812 16.451171875 125.05859375 32.1611328125 c 0
 47.16796875 162.783203125 9.990234375 267.592773438 1.7421875 352.348632812 c 0
 -6.5068359375 437.10546875 15.150390625 502.205078125 53.822265625 547.985351562 c 0
 111.830078125 616.657226562 202.891601562 641.78125 283.2578125 642.956054688 c 0
EndSplineSet
EndChar

StartChar: H
Encoding: 72 72 12
Width: 381
Flags: HW
LayerCount: 2
Fore
SplineSet
333.50390625 642.9765625 m 0
 333.59765625 642.977539062 333.686523438 642.973632812 333.78125 642.973632812 c 0
 344.725585938 642.973632812 353.627929688 634.1640625 353.779296875 623.255859375 c 0
 355.192382812 521.302734375 355.908203125 439.786132812 356.62109375 370.8515625 c 0
 360.442382812 367.208007812 362.8125 362.0546875 362.8125 356.362304688 c 0
 362.8125 351.625 361.162109375 347.26953125 358.404296875 343.841796875 c 0
 357.921875 343.245117188 357.4375 342.678710938 356.955078125 342.087890625 c 0
 359.219726562 138.416992188 362.294921875 63.486328125 386.984375 -35.150390625 c 0
 387.374023438 -36.7080078125 387.57421875 -38.3271484375 387.57421875 -40.0048828125 c 0
 387.57421875 -49.365234375 381.129882812 -57.232421875 372.439453125 -59.408203125 c 0
 370.881835938 -59.7978515625 369.262695312 -59.998046875 367.584960938 -59.998046875 c 0
 358.224609375 -59.998046875 350.357421875 -53.5537109375 348.181640625 -44.86328125 c 0
 324.366210938 50.28125 319.879882812 126.071289062 317.509765625 300.33203125 c 1
 264.810546875 252.709960938 210.727539062 234.41796875 161.681640625 233.0859375 c 0
 116.489257812 231.858398438 76.1796875 244.138671875 43.890625 257.255859375 c 1
 38.283203125 195.229492188 39.2529296875 153.55859375 44.126953125 123.533203125 c 0
 49.4521484375 90.7333984375 58.8515625 71.3037109375 71.357421875 49.755859375 c 0
 73.0673828125 46.8095703125 74.0810546875 43.3779296875 74.0810546875 39.7294921875 c 0
 74.0810546875 32.33984375 70.064453125 25.880859375 64.09765625 22.41796875 c 0
 61.1513671875 20.7080078125 57.720703125 19.6953125 54.072265625 19.6953125 c 0
 46.68359375 19.6953125 40.224609375 23.7109375 36.76171875 29.677734375 c 0
 23.224609375 53.001953125 10.814453125 79.1025390625 4.642578125 117.123046875 c 0
 -1.4443359375 154.618164062 -1.9033203125 203.596679688 5.474609375 275.931640625 c 0
 2.0947265625 279.513671875 0.0322265625 284.365234375 0.0322265625 289.673828125 c 0
 0.0322265625 292.655273438 0.685546875 295.484375 1.857421875 298.02734375 c 0
 3.2998046875 300.9140625 5.3916015625 303.374023438 7.98046875 305.2578125 c 0
 13.5341796875 385.38671875 9.306640625 487.125976562 -4.146484375 573.939453125 c 0
 -4.302734375 574.944335938 -4.36328125 575.955078125 -4.36328125 577.00390625 c 0
 -4.36328125 586.994140625 2.9775390625 595.283203125 12.5546875 596.767578125 c 0
 13.5595703125 596.923828125 14.5703125 596.984375 15.619140625 596.984375 c 0
 25.609375 596.984375 33.8984375 589.643554688 35.3828125 580.06640625 c 0
 49.54296875 488.694335938 53.89453125 383.680664062 47.654296875 299.154296875 c 1
 79.564453125 285.360351562 118.505859375 271.927734375 160.595703125 273.0703125 c 0
 208.504882812 274.37109375 261.291015625 293.129882812 316.76171875 356.478515625 c 1
 315.995117188 428.189453125 315.279296875 514.813476562 313.783203125 622.701171875 c 0
 313.782226562 622.794921875 313.786132812 622.883789062 313.786132812 622.978515625 c 0
 313.786132812 633.922851562 322.595703125 642.825195312 333.50390625 642.9765625 c 0
EndSplineSet
EndChar

StartChar: I
Encoding: 73 73 13
Width: 138
Flags: W
HStem: -0.00488281 21G<44.9824 50.502> 622.999 20G<70.8745 72.2153>
VStem: 25 39.998<0.00161358 221.696> 51.9629 39.501<426.48 642.401>
LayerCount: 2
Fore
SplineSet
68.10546875 642.716796875 m 0xd0
 69.203125 642.903320312 70.2998046875 642.999023438 71.44921875 642.999023438 c 0
 72.9814453125 642.999023438 74.47265625 642.826171875 75.90625 642.5 c 0
 84.8037109375 640.47265625 91.4638671875 632.518554688 91.4638671875 623.010742188 c 0xd0
 91.4638671875 621.48046875 91.2919921875 619.989257812 90.96484375 618.556640625 c 0
 81.20703125 575.721679688 69.0693359375 495.940429688 74.279296875 461.34375 c 0
 98.9423828125 297.572265625 65.70703125 151.534179688 64.998046875 19.888671875 c 0
 64.939453125 8.900390625 56.0029296875 -0.0048828125 45.0009765625 -0.0048828125 c 0
 44.9638671875 -0.0048828125 44.927734375 -0.00390625 44.890625 -0.00390625 c 0
 33.9033203125 0.0556640625 25 8.9921875 25 19.9931640625 c 0
 25 20.0302734375 25 20.06640625 25 20.103515625 c 0xe0
 25.7431640625 158.078125 58.060546875 300.43359375 34.724609375 455.388671875 c 0
 27.2109375 505.282226562 41.623046875 582.0546875 51.962890625 627.443359375 c 0
 53.7451171875 635.263671875 60.1337890625 641.358398438 68.10546875 642.716796875 c 0xd0
EndSplineSet
EndChar

StartChar: J
Encoding: 74 74 14
Width: 291
Flags: HW
LayerCount: 2
Fore
SplineSet
221.06640625 642.881835938 m 0
 224.635742188 642.491210938 227.962890625 641.149414062 230.716796875 639.131835938 c 0
 235.68359375 635.491210938 238.8828125 629.607421875 238.8828125 622.983398438 c 0
 238.8828125 618.568359375 237.450195312 614.486328125 235.0234375 611.176757812 c 0
 231.942382812 606.97265625 228.842773438 602.901367188 225.720703125 598.938476562 c 0
 226.0703125 598.313476562 226.391601562 597.662109375 226.673828125 596.999023438 c 0
 245.877929688 499.709960938 272.453125 378.956054688 282.298828125 273.383789062 c 0
 287.221679688 220.596679688 288.078125 171.600585938 281.078125 130.153320312 c 0
 274.078125 88.705078125 258.859375 53.0849609375 228.234375 33.2041015625 c 0
 177.280273438 0.125 132.870117188 -5.740234375 96.71875 4.7041015625 c 0
 60.5673828125 15.1474609375 34.35546875 39.4345703125 12.423828125 59.6103515625 c 0
 5.9833984375 65.5341796875 1.2998046875 74.0673828125 0.265625 82.6591796875 c 0
 -0.7685546875 91.25 1.3447265625 99.0576171875 4.390625 105.573242188 c 0
 10.4814453125 118.603515625 20.298828125 128.333007812 30.9140625 137.284179688 c 0
 41.529296875 146.235351562 53.1572265625 153.966796875 63.611328125 159.934570312 c 0
 74.0654296875 165.901367188 81.0771484375 170.086914062 91.728515625 172.043945312 c 0
 92.90625 172.259765625 94.1025390625 172.35546875 95.3427734375 172.35546875 c 0
 105.141601562 172.35546875 113.3046875 165.29296875 115.013671875 155.985351562 c 0
 115.229492188 154.807617188 115.325195312 153.611328125 115.325195312 152.372070312 c 0
 115.325195312 142.573242188 108.262695312 134.411132812 98.955078125 132.702148438 c 1
 101.326171875 133.13671875 91.98046875 130.069335938 83.44140625 125.196289062 c 0
 74.9033203125 120.322265625 64.9033203125 113.624023438 56.69921875 106.706054688 c 0
 48.4951171875 99.787109375 42.2978515625 92.20703125 40.626953125 88.6337890625 c 0
 40.5126953125 88.3876953125 40.5390625 88.3828125 40.462890625 88.1923828125 c 0
 61.81640625 68.5888671875 83.369140625 50.1962890625 107.822265625 43.1318359375 c 0
 132.639648438 35.9619140625 162.12109375 37.9736328125 206.455078125 66.7548828125 c 0
 223.474609375 77.8037109375 235.611328125 101.133789062 241.63671875 136.815429688 c 0
 247.663085938 172.49609375 247.213867188 218.80859375 242.470703125 269.668945312 c 0
 233.783203125 362.821289062 211.244140625 470.483398438 192.626953125 563.325195312 c 1
 177.703125 550.301757812 161.685546875 540.490234375 143.78125 534.911132812 c 0
 107.920898438 523.736328125 67.6533203125 532.23828125 24.208984375 559.852539062 c 0
 18.625 563.401367188 14.9501953125 569.651367188 14.9501953125 576.751953125 c 0
 14.9501953125 580.689453125 16.0908203125 584.36328125 18.05859375 587.459960938 c 0
 21.6083984375 593.043945312 27.8583984375 596.71875 34.958984375 596.71875 c 0
 38.896484375 596.71875 42.5693359375 595.578125 45.666015625 593.610351562 c 0
 83.234375 569.731445312 108.995117188 565.965820312 131.8828125 573.098632812 c 0
 154.771484375 580.23046875 177.944335938 600.967773438 202.76171875 634.825195312 c 0
 206.40234375 639.791015625 212.247070312 643.000976562 218.87109375 643.000976562 c 0
 219.61328125 643.000976562 220.345703125 642.959960938 221.06640625 642.881835938 c 0
EndSplineSet
EndChar

StartChar: K
Encoding: 75 75 15
Width: 649
Flags: HW
LayerCount: 2
Fore
SplineSet
103.109375 642.997070312 m 0
 113.984375 642.807617188 122.760742188 633.92578125 122.760742188 623.005859375 c 0
 122.760742188 622.887695312 122.759765625 622.76953125 122.7578125 622.651367188 c 0
 120.399414062 487.275390625 129.1015625 359.11328125 143.728515625 234.612304688 c 1
 320.662109375 342.048828125 433.244140625 445.69140625 550.275390625 599.280273438 c 0
 553.930664062 604.076171875 559.672851562 607.158203125 566.162109375 607.158203125 c 0
 567.032226562 607.158203125 567.888671875 607.102539062 568.728515625 606.995117188 c 0
 572.28515625 606.5390625 575.587890625 605.137695312 578.306640625 603.065429688 c 0
 583.102539062 599.41015625 586.174804688 593.631835938 586.174804688 587.141601562 c 0
 586.174804688 582.59375 584.653320312 578.397460938 582.091796875 575.036132812 c 0
 474.470703125 433.797851562 367.866210938 332.052734375 215.66015625 232.872070312 c 1
 270.727539062 248.641601562 318.543945312 258.3046875 360.05859375 262.405273438 c 0
 445.938476562 270.887695312 506.921875 255.654296875 548.80078125 222.168945312 c 0
 590.6796875 188.68359375 611.205078125 139.3125 622.912109375 85.9248046875 c 0
 634.619140625 32.537109375 637.978515625 -26.009765625 643.666015625 -82.2587890625 c 0
 643.733398438 -82.9267578125 643.747070312 -83.5849609375 643.747070312 -84.271484375 c 0
 643.747070312 -94.6240234375 635.865234375 -103.149414062 625.779296875 -104.168945312 c 0
 625.111328125 -104.236328125 624.453125 -104.25 623.767578125 -104.25 c 0
 613.415039062 -104.25 604.888671875 -96.3671875 603.869140625 -86.2822265625 c 0
 598.068359375 -28.91015625 594.557617188 28.4794921875 583.83984375 77.3583984375 c 0
 573.122070312 126.236328125 555.665039062 165.46484375 523.8203125 190.926757812 c 0
 491.975585938 216.388671875 443.49609375 230.452148438 363.990234375 222.598632812 c 0
 308.723632812 217.139648438 238.700195312 200.50390625 151.798828125 170.459960938 c 1
 158.48828125 120.53515625 165.995117188 71.1044921875 174.005859375 21.9501953125 c 0
 174.177734375 20.896484375 174.248046875 19.833984375 174.248046875 18.732421875 c 0
 174.248046875 8.794921875 166.985351562 0.541015625 157.482421875 -1.0068359375 c 0
 156.4296875 -1.1787109375 155.368164062 -1.248046875 154.266601562 -1.248046875 c 0
 144.330078125 -1.248046875 136.076171875 6.0146484375 134.52734375 15.5166015625 c 0
 126.923828125 62.1689453125 119.776367188 109.174804688 113.31640625 156.674804688 c 1
 86.1953125 146.629882812 57.927734375 135.669921875 27.646484375 123.086914062 c 0
 25.294921875 122.114257812 22.68359375 121.555664062 19.9814453125 121.555664062 c 0
 8.94140625 121.555664062 -0.0205078125 130.518554688 -0.0205078125 141.557617188 c 0
 -0.0205078125 149.193359375 4.267578125 155.8359375 10.564453125 159.206054688 c 0
 44.4423828125 177.262695312 76.1337890625 194.888671875 106.1328125 212.331054688 c 1
 90.0859375 343.666015625 80.2548828125 479.385742188 82.763671875 623.348632812 c 0
 82.953125 634.223632812 91.8349609375 643 102.754882812 643 c 0
 102.873046875 643 102.991210938 642.999023438 103.109375 642.997070312 c 0
EndSplineSet
EndChar

StartChar: L
Encoding: 76 76 16
Width: 471
Flags: HW
LayerCount: 2
Fore
SplineSet
89.5205078125 642.989257812 m 0
 100.25390625 642.640625 108.87109375 633.828125 108.87109375 623.010742188 c 0
 108.87109375 622.790039062 108.868164062 622.5703125 108.860351562 622.350585938 c 0
 103.048828125 443.797851562 72.85546875 298.056640625 54.4794921875 195.909179688 c 0
 45.2919921875 144.8359375 39.28125 104.374023438 40.0810546875 78.4970703125 c 0
 40.4814453125 65.55859375 42.7060546875 56.6298828125 45.1318359375 52.0693359375 c 0
 47.55859375 47.5087890625 48.869140625 46.384765625 54.0498046875 45.0673828125 c 0
 101.779296875 32.9306640625 136.803710938 34.5341796875 192.065429688 40.8037109375 c 0
 247.328125 47.07421875 321.403320312 58.138671875 441.108398438 63.6767578125 c 0
 441.419921875 63.69140625 441.71875 63.6845703125 442.033203125 63.6845703125 c 0
 452.756835938 63.6845703125 461.520507812 55.2255859375 462.010742188 44.6220703125 c 0
 462.025390625 44.3115234375 462.018554688 44.0126953125 462.018554688 43.6982421875 c 0
 462.018554688 32.974609375 453.560546875 24.2099609375 442.956054688 23.7197265625 c 0
 324.939453125 18.259765625 253.078125 7.470703125 196.575195312 1.0595703125 c 0
 140.073242188 -5.3505859375 97.5048828125 -7.255859375 44.1923828125 6.2998046875 c 0
 29.4482421875 10.048828125 16.6982421875 20.3505859375 9.8173828125 33.2841796875 c 0
 2.9375 46.21875 0.6083984375 60.853515625 0.1005859375 77.2607421875 c 0
 -0.9140625 110.076171875 5.837890625 151.43359375 15.1123046875 202.991210938 c 0
 33.662109375 306.107421875 63.1943359375 448.891601562 68.8818359375 623.651367188 c 0
 69.232421875 634.383789062 78.0439453125 643 88.861328125 643 c 0
 89.08203125 643 89.3017578125 642.99609375 89.5205078125 642.989257812 c 0
EndSplineSet
EndChar

StartChar: M
Encoding: 77 77 17
Width: 503
Flags: HW
LayerCount: 2
Fore
SplineSet
454.56640625 642.673828125 m 0
 455.739257812 642.888671875 456.916992188 642.999023438 458.151367188 642.999023438 c 0
 459.626953125 642.999023438 461.06640625 642.838867188 462.451171875 642.53515625 c 0
 470.375976562 640.796875 476.560546875 634.336914062 477.8984375 626.271484375 c 0
 502.540039062 477.599609375 498.797851562 336.90625 492.326171875 227.50390625 c 0
 489.090820312 172.802734375 485.172851562 125.865234375 483.708984375 90.2109375 c 0
 482.245117188 54.556640625 485.719726562 28.638671875 487.431640625 25.32421875 c 0
 488.849609375 22.580078125 489.682617188 19.45703125 489.682617188 16.158203125 c 0
 489.682617188 8.419921875 485.278320312 1.7021484375 478.841796875 -1.623046875 c 0
 476.096679688 -3.041015625 472.974609375 -3.8740234375 469.673828125 -3.8740234375 c 0
 461.935546875 -3.8740234375 455.217773438 0.5302734375 451.892578125 6.966796875 c 0
 440.611328125 28.8056640625 442.217773438 54.7373046875 443.7421875 91.853515625 c 0
 445.266601562 128.969726562 449.194335938 175.727539062 452.396484375 229.8671875 c 0
 457.926757812 323.349609375 461.250976562 438.690429688 446.708984375 561.130859375 c 1
 418.893554688 501.575195312 395.770507812 424.142578125 375.87890625 353.525390625 c 0
 362.76953125 306.984375 350.870117188 263.358398438 338.89453125 228.697265625 c 0
 332.907226562 211.3671875 326.943359375 196.288085938 320.3671875 183.75390625 c 0
 313.791015625 171.219726562 307.23046875 160.657226562 295.255859375 153.51171875 c 0
 292.262695312 151.725585938 288.723632812 150.697265625 284.98828125 150.697265625 c 0
 280.734375 150.697265625 276.790039062 152.028320312 273.546875 154.294921875 c 0
 190.823242188 212.125 129.395507812 319.874023438 70.541015625 485.978515625 c 1
 50.7763671875 318.166015625 75.626953125 170.095703125 39.498046875 11.87109375 c 0
 37.4677734375 2.978515625 29.515625 -3.6767578125 20.01171875 -3.6767578125 c 0
 18.4775390625 -3.6767578125 16.982421875 -3.50390625 15.546875 -3.17578125 c 0
 6.6552734375 -1.14453125 0.0009765625 6.806640625 0.0009765625 16.310546875 c 0
 0.0009765625 17.8447265625 0.173828125 19.33984375 0.501953125 20.775390625 c 0
 39.7294921875 192.5703125 0.4775390625 362.724609375 44.05859375 573.44140625 c 0
 45.9423828125 582.530273438 53.99609375 589.385742188 63.6396484375 589.385742188 c 0
 72.5595703125 589.385742188 80.123046875 583.53515625 82.69921875 575.46484375 c 0
 145.041015625 379.885742188 207.328125 258.828125 282.298828125 197.8359375 c 1
 283.173828125 199.24609375 284.048828125 200.62890625 284.9453125 202.337890625 c 0
 289.94921875 211.875976562 295.462890625 225.478515625 301.087890625 241.759765625 c 0
 312.338867188 274.322265625 324.215820312 317.645507812 337.376953125 364.369140625 c 0
 363.69921875 457.81640625 394.3984375 564.611328125 441.615234375 634.228515625 c 0
 444.568359375 638.581054688 449.197265625 641.69140625 454.56640625 642.673828125 c 0
EndSplineSet
EndChar

StartChar: N
Encoding: 78 78 18
Width: 547
Flags: HW
LayerCount: 2
Fore
SplineSet
471.19140625 642.65625 m 0
 472.392578125 642.881835938 473.615234375 642.983398438 474.8828125 642.983398438 c 0
 484.653320312 642.983398438 492.797851562 635.9609375 494.5390625 626.69140625 c 0
 531.479492188 429.955078125 514.272460938 244.389648438 518.37890625 58.052734375 c 0
 518.381835938 57.9052734375 518.393554688 57.765625 518.393554688 57.6171875 c 0
 518.393554688 46.5771484375 509.431640625 37.615234375 498.391601562 37.615234375 c 0
 496.8046875 37.615234375 495.259765625 37.80078125 493.779296875 38.150390625 c 0
 342.896484375 73.845703125 200.46484375 212.161132812 67.310546875 369.484375 c 1
 58.3505859375 247.70703125 53.9091796875 130.624023438 55.228515625 20.23828125 c 0
 55.2294921875 20.158203125 55.2255859375 20.0810546875 55.2255859375 20.0009765625 c 0
 55.2255859375 9.0439453125 46.39453125 0.1328125 35.46875 0.001953125 c 0
 35.3876953125 0.0009765625 35.3115234375 0.0048828125 35.23046875 0.0048828125 c 0
 24.2744140625 0.0048828125 15.36328125 8.833984375 15.232421875 19.759765625 c 0
 13.71875 146.42578125 19.6689453125 281.276367188 31.244140625 421.611328125 c 0
 32.0927734375 431.872070312 40.693359375 439.977539062 51.1708984375 439.977539062 c 0
 57.38671875 439.977539062 62.943359375 437.13671875 66.61328125 432.68359375 c 0
 199.181640625 271.775390625 341.678710938 128.561523438 478.109375 84.125 c 1
 475.870117188 263.86328125 489.201171875 438.370117188 455.2265625 619.30859375 c 0
 455 620.510742188 454.899414062 621.733398438 454.899414062 623 c 0
 454.899414062 632.771484375 461.921875 640.916015625 471.19140625 642.65625 c 0
EndSplineSet
EndChar

StartChar: O
Encoding: 79 79 19
Width: 505
Flags: W
HStem: 602.705 39.834<194.118 297.909>
VStem: 401.713 38.8223<417.243 429.141>
LayerCount: 2
Fore
SplineSet
245.037109375 642.986328125 m 0
 264.284179688 643.2890625 282.2265625 638.524414062 298.681640625 630.525390625 c 0
 298.874023438 630.573242188 299.072265625 630.620117188 299.267578125 630.662109375 c 0
 381.899414062 628.090820312 439.506835938 587.208007812 469.361328125 528.931640625 c 0
 499.215820312 470.655273438 503.71875 396.8828125 491.337890625 323.18359375 c 0
 478.95703125 249.484375 449.423828125 175.528320312 407.34765625 116.5234375 c 0
 365.271484375 57.5185546875 310.032226562 12.6572265625 245.310546875 2.38671875 c 0
 146.919921875 -13.2275390625 55.814453125 48.845703125 18.6015625 150.291015625 c 0
 -18.611328125 251.736328125 -3.947265625 392.333007812 98.80078125 539.951171875 c 0
 145.423828125 606.934570312 191.612304688 638.423828125 236.66796875 642.5390625 c 0
 239.484375 642.795898438 242.274414062 642.942382812 245.037109375 642.986328125 c 0
251.072265625 602.87109375 m 0
 247.517578125 603.0859375 243.9296875 603.036132812 240.306640625 602.705078125 c 0
 211.323242188 600.057617188 174.569335938 578.787109375 131.6328125 517.099609375 c 0
 34.640625 377.750976562 24.228515625 251.098632812 56.154296875 164.06640625 c 0
 88.080078125 77.0341796875 160.325195312 29.400390625 239.041015625 41.892578125 c 0
 289.188476562 49.8505859375 336.793945312 86.4755859375 374.78125 139.74609375 c 0
 412.768554688 193.016601562 440.520507812 262.126953125 451.890625 329.810546875 c 0
 463.260742188 397.494140625 457.978515625 463.421875 433.76171875 510.693359375 c 0
 418.127929688 541.209960938 395.537109375 564.680664062 362.494140625 578.12109375 c 1
 412.578125 519.111328125 439.341796875 442.708984375 439.341796875 442.708984375 c 2
 440.10546875 440.591796875 440.53515625 438.30859375 440.53515625 435.9296875 c 0
 440.53515625 427.270507812 435.01953125 419.888671875 427.3125 417.109375 c 0
 425.1953125 416.345703125 422.913085938 415.916015625 420.534179688 415.916015625 c 0
 411.874023438 415.916015625 404.491210938 421.432617188 401.712890625 429.140625 c 2
 401.712890625 429.140625 370.0234375 514.203125 320.72265625 564.765625 c 0
 299.153320312 586.88671875 275.952148438 601.369140625 251.072265625 602.87109375 c 0
EndSplineSet
EndChar

StartChar: i
Encoding: 105 105 20
Width: 258
Flags: W
HStem: 102.855 39.1777<-19.0612 36.8267> 389.998 53.4375<127.26 174.264>
VStem: 126.887 47.75<390.136 443.297>
LayerCount: 2
Fore
SplineSet
150.76171875 443.435546875 m 0
 163.938476562 443.435546875 174.63671875 431.462890625 174.63671875 416.716796875 c 0
 174.63671875 401.970703125 163.938476562 389.998046875 150.76171875 389.998046875 c 0
 137.584960938 389.998046875 126.88671875 401.970703125 126.88671875 416.716796875 c 0
 126.88671875 431.462890625 137.584960938 443.435546875 150.76171875 443.435546875 c 0
144.57421875 358.50390625 m 0
 154.2265625 357.083984375 161.665039062 348.77734375 161.665039062 338.734375 c 0
 161.665039062 338.17578125 161.642578125 337.623046875 161.59765625 337.076171875 c 0
 158.465820312 299.69921875 151.780273438 265.73828125 140.85546875 235.638671875 c 1
 132.983398438 195.33203125 127.326171875 161.501953125 125.525390625 134.39453125 c 0
 122.704101562 91.9228515625 127.78125 65.427734375 143.83203125 42.142578125 c 1
 150.28125 45.6533203125 160.181640625 53.0458984375 169.640625 61.1875 c 0
 188.688476562 77.583984375 206.564453125 96.62890625 206.564453125 96.62890625 c 2
 210.21484375 100.53125 215.415039062 102.963867188 221.174804688 102.963867188 c 0
 226.454101562 102.963867188 231.2578125 100.9140625 234.833984375 97.568359375 c 0
 238.735351562 93.91796875 241.16796875 88.7177734375 241.16796875 82.9580078125 c 0
 241.16796875 77.6796875 239.119140625 72.876953125 235.7734375 69.30078125 c 2
 235.7734375 69.30078125 216.981445312 49.158203125 195.736328125 30.87109375 c 0
 185.11328125 21.7275390625 174.060546875 12.9853515625 162.67578125 6.837890625 c 0
 156.983398438 3.7646484375 151.271484375 1.109375 143.716796875 0.177734375 c 0
 136.162109375 -0.75390625 124.364257812 1.849609375 117.75 10.06640625 c 0
 90.5751953125 43.822265625 82.1630859375 85.111328125 85.61328125 137.046875 c 0
 85.8916015625 141.241210938 86.3505859375 145.663085938 86.765625 150.029296875 c 1
 64.623046875 128.94921875 37.5263671875 113.08984375 5.669921875 103.673828125 c 0
 3.87109375 103.142578125 1.9736328125 102.85546875 0.0029296875 102.85546875 c 0
 -9.0654296875 102.85546875 -16.732421875 108.904296875 -19.1796875 117.18359375 c 0
 -19.7109375 118.982421875 -19.998046875 120.879882812 -19.998046875 122.850585938 c 0
 -19.998046875 131.918945312 -13.94921875 139.5859375 -5.669921875 142.033203125 c 0
 34.4921875 153.904296875 62.8359375 175.892578125 83.623046875 208.650390625 c 0
 90.80859375 219.974609375 96.96484375 232.763671875 102.22265625 246.791015625 c 0
 107.916015625 275.612304688 114.46484375 306.78515625 122.1015625 342.884765625 c 0
 124.02734375 351.918945312 132.0390625 358.717773438 141.643554688 358.717773438 c 0
 142.639648438 358.717773438 143.618164062 358.64453125 144.57421875 358.50390625 c 0
EndSplineSet
EndChar

StartChar: P
Encoding: 80 80 21
Width: 528
Flags: HW
HStem: 0.0107422 21G<134.478 139.998> 338.731 39.5693<-83.3018 21.4158> 380.561 41.6406<124.139 199.122> 596.248 40.543<16.7104 369.18>
VStem: 83.8711 44.8389<173.8 370.789 422.201 531.265>
LayerCount: 2
Fore
SplineSet
244.24609375 636.791015625 m 0
 254.6171875 636.760742188 264.975585938 636.5703125 275.26171875 636.224609375 c 0
 357.552734375 633.462890625 433.607421875 622.045898438 478.486328125 596.693359375 c 0
 489.706054688 590.35546875 499.356445312 582.952148438 506.19921875 572.71484375 c 0
 513.041992188 562.477539062 516.022460938 548.497070312 512.732421875 535.8046875 c 0
 506.153320312 510.420898438 483.653320312 492.564453125 446.869140625 472.875 c 0
 394.228515625 444.698242188 307.208007812 414.1015625 173.142578125 380.560546875 c 1
 170.88671875 224.905273438 187.049804688 117.944335938 208.703125 24.515625 c 0
 209.040039062 23.060546875 209.208007812 21.5576171875 209.208007812 20 c 0
 209.208007812 10.5185546875 202.595703125 2.5693359375 193.734375 0.515625 c 0
 192.279296875 0.1787109375 190.776367188 0.0107421875 189.21875 0.0107421875 c 0
 179.737304688 0.0107421875 171.788085938 6.623046875 169.734375 15.484375 c 0
 148.034179688 109.1171875 131.71484375 217.422851562 133.087890625 370.7890625 c 1
 89.9130859375 360.509765625 42.6025390625 349.974609375 -9.75390625 339.1328125 c 0
 -11.068359375 338.860351562 -12.4150390625 338.731445312 -13.8095703125 338.731445312 c 0
 -23.453125 338.731445312 -31.5126953125 345.572265625 -33.39453125 354.662109375 c 0
 -33.6669921875 355.975585938 -33.794921875 357.322265625 -33.794921875 358.715820312 c 0
 -33.794921875 368.359375 -26.955078125 376.418945312 -17.865234375 378.30078125 c 0
 38.189453125 389.908203125 88.4951171875 401.219726562 133.87109375 412.2109375 c 1
 134.771484375 443.908203125 136.30859375 477.223632812 138.755859375 512.84765625 c 0
 139.469726562 523.239257812 148.120117188 531.477539062 158.69140625 531.477539062 c 0
 159.158203125 531.477539062 159.62109375 531.4609375 160.080078125 531.4296875 c 0
 170.471679688 530.715820312 178.709960938 522.065429688 178.709960938 511.494140625 c 0
 178.709960938 511.028320312 178.693359375 510.565429688 178.662109375 510.107421875 c 0
 176.536132812 479.1640625 175.080078125 450.001953125 174.138671875 422.201171875 c 1
 300.831054688 454.521484375 382.287109375 483.67578125 427.994140625 508.140625 c 0
 460.799804688 525.700195312 472.889648438 541.510742188 474.01171875 545.83984375 c 0
 474.572265625 548.00390625 474.6796875 547.890625 472.943359375 550.48828125 c 0
 471.20703125 553.0859375 466.572265625 557.483398438 458.8125 561.8671875 c 0
 427.772460938 579.401367188 352.817382812 593.599609375 273.919921875 596.248046875 c 0
 195.022460938 598.896484375 110.473632812 591.21484375 56.185546875 573.55859375 c 0
 31.9951171875 565.69140625 21.748046875 556.591796875 17.318359375 551.1171875 c 0
 15.103515625 548.379882812 14.279296875 546.462890625 13.962890625 545.599609375 c 0
 13.646484375 544.736328125 13.9765625 546.51953125 13.9765625 546.51953125 c 1
 13.216796875 536.171875 4.587890625 527.983398438 -5.9521484375 527.983398438 c 0
 -6.4501953125 527.983398438 -6.9443359375 528.000976562 -7.43359375 528.037109375 c 0
 -17.78125 528.796875 -25.9697265625 537.42578125 -25.9697265625 547.965820312 c 0
 -25.9697265625 548.463867188 -25.9521484375 548.958007812 -25.916015625 549.447265625 c 2
 -25.916015625 549.447265625 -25.3369140625 554.608398438 -23.59375 559.36328125 c 0
 -21.8505859375 564.118164062 -18.806640625 570.05859375 -13.77734375 576.275390625 c 0
 -3.71875 588.708007812 14.0185546875 601.907226562 43.814453125 611.59765625 c 0
 98.3603515625 629.337890625 171.6484375 637.001953125 244.24609375 636.791015625 c 0
EndSplineSet
EndChar

StartChar: e
Encoding: 101 101 22
Width: 298
Flags: W
HStem: 26.6992 38.3447<222.693 287.991> 318.668 39.9434<76.5785 173.753>
VStem: 0.582031 287.557
LayerCount: 2
Fore
SplineSet
123.552734375 358.619140625 m 0
 143.747070312 357.77734375 165.189453125 350.916992188 186.982421875 337.888671875 c 0
 230.111328125 312.104492188 249.221679688 276.265625 245.7421875 241.78125 c 0
 242.262695312 207.296875 220.861328125 177.51953125 196.20703125 151.701171875 c 0
 154.956054688 108.501953125 103.38671875 76.830078125 86.86328125 67.16015625 c 1
 89.8388671875 64.5029296875 92.9111328125 61.962890625 96.16796875 59.66796875 c 0
 130.098632812 35.759765625 181.748046875 28.3984375 261.806640625 63.357421875 c 0
 264.25390625 64.42578125 266.9609375 65.0439453125 269.799804688 65.0439453125 c 0
 277.999023438 65.0439453125 285.052734375 60.0986328125 288.138671875 53.03125 c 0
 289.20703125 50.583984375 289.825195312 47.876953125 289.825195312 45.037109375 c 0
 289.825195312 36.8388671875 284.880859375 29.78515625 277.814453125 26.69921875 c 0
 189.706054688 -11.7744140625 120.100585938 -6.1259765625 73.12890625 26.970703125 c 0
 26.1572265625 60.0673828125 4.2529296875 116.627929688 0.58203125 172.279296875 c 0
 -3.0888671875 227.930664062 10.560546875 284.197265625 42.6171875 321.5390625 c 0
 58.6455078125 340.209960938 80.115234375 354.006835938 105.3828125 357.703125 c 0
 108.541015625 358.165039062 111.741210938 358.46875 114.9765625 358.611328125 c 0
 117.807617188 358.736328125 120.66796875 358.739257812 123.552734375 358.619140625 c 0
122.044921875 318.6875 m 0
 120.26171875 318.756835938 118.522460938 318.748046875 116.826171875 318.66796875 c 0
 114.88671875 318.577148438 113.002929688 318.392578125 111.171875 318.125 c 0
 96.5234375 315.982421875 84.0625 308.409179688 72.966796875 295.484375 c 0
 50.775390625 269.633789062 37.40234375 221.807617188 40.49609375 174.912109375 c 0
 42.3037109375 147.50390625 49.5830078125 121.065429688 61.962890625 98.943359375 c 1
 67.537109375 102.145507812 126.09765625 136.202148438 167.27734375 179.326171875 c 0
 188.884765625 201.954101562 203.991210938 226.454101562 205.943359375 245.798828125 c 0
 207.895507812 265.143554688 201.364257812 282.6875 166.45703125 303.556640625 c 0
 149.151367188 313.90234375 134.524414062 318.202148438 122.044921875 318.6875 c 0
EndSplineSet
EndChar

StartChar: Q
Encoding: 81 81 23
Width: 608
Flags: HW
LayerCount: 2
Fore
SplineSet
353.265625 642.98828125 m 0
 366.211914062 643.1875 379.021484375 641.2890625 391.330078125 637.45703125 c 0
 424.15234375 627.239257812 453.48828125 604.606445312 478.728515625 574.8203125 c 0
 529.208984375 515.249023438 564.400390625 426.03515625 571.36328125 334.44921875 c 0
 578.327148438 242.86328125 556.279296875 147.604492188 487.048828125 81.94140625 c 0
 471.83984375 67.515625 454.333984375 54.783203125 434.708984375 43.794921875 c 1
 501.958984375 17.041015625 592.903320312 8.1162109375 694.6953125 11.515625 c 0
 694.920898438 11.5234375 695.137695312 11.515625 695.365234375 11.515625 c 0
 706.17578125 11.515625 714.995117188 2.919921875 715.353515625 -7.8046875 c 0
 715.361328125 -8.0302734375 715.353515625 -8.2451171875 715.353515625 -8.47265625 c 0
 715.353515625 -19.2841796875 706.756835938 -28.103515625 696.03125 -28.4609375 c 0
 575.284179688 -32.494140625 466.330078125 -21.296875 386.5078125 22.19140625 c 1
 321.9140625 -0.2822265625 239.139648438 -6.65234375 135.865234375 9.28515625 c 0
 67.7578125 19.7958984375 24.8935546875 62.4541015625 8.818359375 116.8125 c 0
 -7.2568359375 171.170898438 -0.14453125 236.043945312 20.375 300.37890625 c 0
 40.89453125 364.713867188 75.2431640625 428.639648438 117.28125 480.318359375 c 0
 159.319335938 531.997070312 208.979492188 572.029296875 262.912109375 585.287109375 c 0
 272.380859375 587.614257812 282.9296875 588.485351562 294.138671875 588.16015625 c 1
 289.366210938 589.3671875 285.278320312 592.270507812 282.564453125 596.21484375 c 0
 280.680664062 599.264648438 279.559570312 602.866210938 279.559570312 606.7109375 c 0
 279.559570312 613.904296875 283.366210938 620.215820312 289.072265625 623.740234375 c 0
 309.728515625 636.49609375 331.688476562 642.65625 353.265625 642.98828125 c 0
353.748046875 603.337890625 m 1
 353.748046875 603.337890625 l 1
 339.5234375 603.254882812 325.2265625 599.0546875 310.08984375 589.70703125 c 0
 308.006835938 588.646484375 305.671875 587.926757812 303.248046875 587.654296875 c 1
 318.314453125 586.388671875 334.356445312 583.12890625 350.5546875 578.248046875 c 0
 382.481445312 568.62890625 414.765625 552.62890625 432.10546875 523.609375 c 0
 432.106445312 523.607421875 432.106445312 523.60546875 432.107421875 523.603515625 c 0
 451.4765625 491.165039062 451.189453125 452.1328125 451.189453125 452.1328125 c 2
 451.194335938 451.958007812 451.1875 451.790039062 451.1875 451.614257812 c 0
 451.1875 440.751953125 442.509765625 431.901367188 431.71484375 431.62109375 c 0
 431.540039062 431.616210938 431.373046875 431.623046875 431.196289062 431.623046875 c 0
 420.333984375 431.623046875 411.483398438 440.30078125 411.203125 451.095703125 c 2
 411.203125 451.095703125 409.043945312 484.203125 397.767578125 503.091796875 c 0
 389.213867188 517.407226562 365.450195312 531.984375 339.015625 539.94921875 c 0
 312.581054688 547.9140625 283.266601562 549.099609375 272.4609375 546.443359375 c 0
 231.607421875 536.400390625 186.848632812 502.452148438 148.310546875 455.076171875 c 0
 109.772460938 407.700195312 77.38671875 347.493164062 58.482421875 288.22265625 c 0
 39.578125 228.952148438 34.580078125 170.748046875 47.17578125 128.15625 c 0
 59.771484375 85.564453125 86.36328125 57.3984375 141.96484375 48.818359375 c 0
 224.755859375 36.0419921875 291.0625 38.3837890625 343.96484375 51.15625 c 1
 284.641601562 102.084960938 254.908203125 181.8046875 270.19921875 291.18359375 c 0
 271.55859375 300.903320312 279.89453125 308.4140625 289.986328125 308.4140625 c 0
 290.932617188 308.4140625 291.864257812 308.34765625 292.775390625 308.220703125 c 0
 302.495117188 306.861328125 310.005859375 298.525390625 310.005859375 288.43359375 c 0
 310.005859375 287.487304688 309.940429688 286.556640625 309.8125 285.64453125 c 0
 293.955078125 172.2109375 326.243164062 107.57421875 390.427734375 66.318359375 c 1
 418.051757812 78.0849609375 440.89453125 93.2958984375 459.521484375 110.962890625 c 0
 517.776367188 166.215820312 537.802734375 248.233398438 531.478515625 331.416015625 c 0
 525.154296875 414.598632812 491.696289062 497.646484375 448.212890625 548.9609375 c 0
 426.471679688 574.618164062 402.499023438 592.084960938 379.439453125 599.263671875 c 0
 370.791992188 601.956054688 362.283203125 603.387695312 353.748046875 603.337890625 c 1
EndSplineSet
EndChar

StartChar: R
Encoding: 82 82 24
Width: 556
Flags: HW
LayerCount: 2
Fore
SplineSet
321.681640625 642.94921875 m 0
 379.430664062 643.779296875 432.59375 634.227539062 473.98046875 614.27734375 c 0
 515.3671875 594.327148438 546.37890625 561.8515625 550.443359375 519.455078125 c 0
 554.202148438 480.24609375 540.090820312 441.909179688 513.607421875 408.72265625 c 0
 487.124023438 375.536132812 448.3671875 346.733398438 400.259765625 323.505859375 c 0
 342.924804688 295.822265625 272.046875 276.123046875 192.017578125 267.908203125 c 1
 247.783203125 245.89453125 290.721679688 218.494140625 324.548828125 188.73828125 c 0
 385.331054688 135.271484375 416.486328125 74.9609375 442.525390625 29.23046875 c 0
 444.184570312 26.31640625 445.166992188 22.9375 445.166992188 19.3466796875 c 0
 445.166992188 11.8994140625 441.086914062 5.3974609375 435.04296875 1.955078125 c 0
 432.12890625 0.294921875 428.749023438 -0.6875 425.158203125 -0.6875 c 0
 417.709960938 -0.6875 411.208007812 3.392578125 407.765625 9.4375 c 0
 381.09765625 56.271484375 352.81640625 110.599609375 298.12890625 158.705078125 c 0
 246.5859375 204.044921875 171.234375 244.469726562 49.3359375 265.48046875 c 1
 48.7958984375 244.431640625 48.5966796875 223.732421875 48.90234375 203.84375 c 0
 50.322265625 111.329101562 62.3798828125 32.5556640625 77.03125 2.53515625 c 0
 78.322265625 -0.109375 79.0771484375 -3.087890625 79.0771484375 -6.2255859375 c 0
 79.0771484375 -14.1259765625 74.486328125 -20.9619140625 67.830078125 -24.2109375 c 0
 65.185546875 -25.501953125 62.20703125 -26.2568359375 59.0693359375 -26.2568359375 c 0
 51.1689453125 -26.2568359375 44.3330078125 -21.666015625 41.083984375 -15.009765625 c 0
 19.3671875 29.48828125 10.369140625 108.068359375 8.908203125 203.23046875 c 0
 8.5703125 225.25390625 8.7783203125 248.131835938 9.44140625 271.431640625 c 1
 3.7236328125 274.953125 -0.0712890625 281.239257812 -0.0712890625 288.442382812 c 0
 -0.0712890625 289.014648438 -0.046875 289.58203125 0 290.142578125 c 0
 0.796875 296.916015625 4.9658203125 302.666992188 10.798828125 305.6328125 c 1
 13.7626953125 366.022460938 20.02734375 428.484375 30.08203125 487.953125 c 1
 24.3701171875 482.305664062 18.8349609375 476.456054688 13.529296875 470.36328125 c 0
 9.861328125 466.151367188 4.4541015625 463.500976562 -1.5634765625 463.500976562 c 0
 -6.583984375 463.500976562 -11.173828125 465.354492188 -14.6875 468.4140625 c 0
 -18.8994140625 472.08203125 -21.5478515625 477.48828125 -21.5478515625 483.505859375 c 0
 -21.5478515625 488.526367188 -19.6943359375 493.1171875 -16.634765625 496.630859375 c 0
 71.341796875 597.65625 206.182617188 641.2890625 321.681640625 642.94921875 c 0
322.255859375 602.955078125 m 0
 238.028320312 601.744140625 141.828125 575.266601562 66.57421875 519.138671875 c 1
 70.6845703125 515.474609375 73.2666015625 510.161132812 73.2666015625 504.2265625 c 0
 73.2666015625 502.999023438 73.1552734375 501.797851562 72.943359375 500.630859375 c 0
 61.341796875 438.107421875 54.138671875 370.692382812 50.85546875 305.734375 c 0
 51.263671875 305.666015625 51.6845703125 305.60546875 52.091796875 305.537109375 c 0
 184.9609375 296.736328125 301.076171875 320.034179688 382.8671875 359.525390625 c 0
 426.833007812 380.752929688 460.759765625 406.626953125 482.341796875 433.671875 c 0
 503.923828125 460.716796875 513.260742188 488.16796875 510.626953125 515.638671875 c 0
 508.194335938 541.018554688 490.23046875 562.040039062 456.611328125 578.24609375 c 0
 422.9921875 594.452148438 375.12109375 603.71484375 322.255859375 602.955078125 c 0
EndSplineSet
EndChar

StartChar: S
Encoding: 83 83 25
Width: 521
Flags: HW
LayerCount: 2
Fore
SplineSet
327.380859375 643 m 0
 355.015625 643.271484375 381.181640625 638.788085938 404.298828125 627.953125 c 0
 450.533203125 606.282226562 479.451171875 556.088867188 473.703125 483.33984375 c 0
 472.888671875 473.045898438 464.28515625 464.916015625 453.784179688 464.916015625 c 0
 453.248046875 464.916015625 452.716796875 464.9375 452.19140625 464.978515625 c 0
 441.896484375 465.791992188 433.765625 474.395507812 433.765625 484.897460938 c 0
 433.765625 485.43359375 433.787109375 485.96484375 433.828125 486.490234375 c 0
 438.735351562 548.594726562 419.499023438 576.653320312 387.322265625 591.734375 c 0
 355.145507812 606.815429688 304.913085938 605.811523438 252.51953125 591.029296875 c 0
 200.125976562 576.247070312 146.00390625 548.420898438 105.82421875 515.97265625 c 0
 65.64453125 483.524414062 41.0771484375 446.65625 39.970703125 418.146484375 c 0
 39.041015625 394.200195312 45.345703125 376.901367188 57.3125 361.70703125 c 0
 69.279296875 346.512695312 87.7578125 333.575195312 111.345703125 322.9140625 c 0
 158.521484375 301.591796875 224.950195312 290.15234375 289.224609375 281.130859375 c 0
 353.499023438 272.109375 415.036132812 265.7890625 458.23828125 249.736328125 c 0
 479.838867188 241.709960938 498.897460938 230.922851562 507.90234375 210.798828125 c 0
 516.907226562 190.674804688 510.799804688 166.90234375 495.3359375 144.484375 c 0
 442.44140625 67.802734375 326.4609375 35.6123046875 224.5625 18.048828125 c 0
 122.6640625 0.4853515625 32.77734375 0 32.77734375 0 c 2
 32.7373046875 -0 32.7001953125 0.001953125 32.66015625 0.001953125 c 0
 21.6611328125 0.001953125 12.724609375 8.8994140625 12.66015625 19.8828125 c 0
 12.66015625 19.9228515625 12.662109375 19.9599609375 12.662109375 20 c 0
 12.662109375 30.9990234375 21.5595703125 39.935546875 32.54296875 40 c 2
 32.54296875 40 119.627929688 40.5537109375 217.767578125 57.46875 c 0
 315.907226562 74.3837890625 423.032226562 110.11328125 462.408203125 167.197265625 c 0
 473.807617188 183.72265625 473.234375 190.341796875 471.390625 194.462890625 c 0
 469.546875 198.583984375 461.373046875 205.899414062 444.306640625 212.240234375 c 0
 410.174804688 224.922851562 348.635742188 232.400390625 283.6640625 241.51953125 c 0
 218.692382812 250.638671875 149.706054688 261.680664062 94.87109375 286.46484375 c 0
 67.4541015625 298.856445312 43.2783203125 314.879882812 25.888671875 336.958984375 c 0
 8.4990234375 359.038085938 -1.2568359375 387.330078125 0 419.69921875 c 0
 1.85546875 467.479492188 35.6552734375 510.720703125 80.693359375 547.091796875 c 0
 125.732421875 583.463867188 183.68359375 613.168945312 241.658203125 629.525390625 c 0
 270.645507812 637.704101562 299.74609375 642.728515625 327.380859375 643 c 0
EndSplineSet
EndChar

StartChar: T
Encoding: 84 84 26
Width: 663
Flags: HW
LayerCount: 2
Fore
SplineSet
21.517578125 654.880859375 m 1
 21.5166015625 654.880859375 l 1
 28.8046875 654.326171875 35.0126953125 649.875976562 38.0283203125 643.59375 c 0
 51.037109375 616.500976562 78.7919921875 602.193359375 124.327148438 595.88671875 c 0
 169.86328125 589.581054688 230.340820312 592.986328125 297.497070312 599.958984375 c 0
 431.810546875 613.90625 592.704101562 641.846679688 729.369140625 624.423828125 c 0
 739.205078125 623.169921875 746.842773438 614.754882812 746.842773438 604.580078125 c 0
 746.842773438 599.07421875 744.61328125 594.0859375 741.008789062 590.466796875 c 2
 685.413085938 534.666015625 l 2
 681.791015625 531.03125 676.775390625 528.78125 671.243164062 528.78125 c 0
 665.737304688 528.78125 660.748046875 531.010742188 657.129882812 534.615234375 c 0
 653.495117188 538.23828125 651.244140625 543.25390625 651.244140625 548.786132812 c 0
 651.244140625 554.291992188 653.473632812 559.28125 657.078125 562.8984375 c 2
 682.533203125 588.447265625 l 1
 569.508789062 594.983398438 438.080078125 575.163085938 320.873046875 562.296875 c 1
 345.336914062 377.551757812 312.15625 162.390625 351.26953125 25.494140625 c 0
 351.768554688 23.7470703125 352.03515625 21.9091796875 352.03515625 20.0029296875 c 0
 352.03515625 10.8720703125 345.90234375 3.1611328125 337.53515625 0.76953125 c 0
 335.787109375 0.2705078125 333.94921875 0.00390625 332.041992188 0.00390625 c 0
 322.91015625 0.00390625 315.19921875 6.1376953125 312.80859375 14.505859375 c 0
 269.125976562 167.396484375 304.383789062 382.521484375 281.04296875 558.2734375 c 1
 220.955078125 552.5625 165.5234375 549.799804688 118.841796875 556.263671875 c 0
 66.8037109375 563.470703125 22.4501953125 583.625976562 1.970703125 626.28125 c 0
 0.71484375 628.896484375 -0.0185546875 631.833984375 -0.0185546875 634.926757812 c 0
 -0.0185546875 642.872070312 4.625 649.741210938 11.34375 652.966796875 c 0
 13.958984375 654.223632812 16.8896484375 654.939453125 19.9833984375 654.939453125 c 0
 20.5 654.939453125 21.0107421875 654.919921875 21.517578125 654.880859375 c 1
EndSplineSet
EndChar

StartChar: U
Encoding: 85 85 27
Width: 487
Flags: HW
LayerCount: 2
Fore
SplineSet
128.7265625 642.57421875 m 1
 128.7265625 642.57421875 l 1
 130.055664062 642.853515625 131.421875 642.995117188 132.833984375 642.995117188 c 0
 135.008789062 642.995117188 137.103515625 642.647460938 139.064453125 642.00390625 c 0
 147.055664062 639.3828125 152.825195312 631.860351562 152.825195312 622.998046875 c 0
 152.825195312 620.823242188 152.477539062 618.728515625 151.833984375 616.767578125 c 0
 96.89453125 449.274414062 66.154296875 319.13671875 59.912109375 225.32421875 c 0
 53.669921875 131.512695312 71.5810546875 77.6640625 107.333984375 52.26953125 c 0
 120.0234375 43.255859375 135.413085938 39.8583984375 155.8203125 40.447265625 c 0
 176.227539062 41.0361328125 200.8515625 45.998046875 228.083984375 52.439453125 c 0
 280.424804688 64.8203125 342.419921875 82.5859375 408.60546875 78.8046875 c 0
 409.374023438 80.634765625 410.265625 82.9658203125 411.115234375 85.8359375 c 0
 414.701171875 97.9423828125 418.13671875 117.961914062 420.734375 142.357421875 c 0
 425.9296875 191.1484375 428.270507812 258.057617188 428.169921875 325.58203125 c 0
 428.069335938 393.106445312 425.55078125 461.44140625 421.267578125 513.470703125 c 0
 419.125976562 539.485351562 416.51171875 561.495117188 413.7109375 576.740234375 c 0
 412.310546875 584.362304688 410.809570312 590.341796875 409.666015625 593.673828125 c 0
 409.448242188 594.309570312 409.155273438 594.693359375 408.880859375 595.06640625 c 1
 409.563476562 594.462890625 410.673828125 593.614257812 412.8828125 592.271484375 c 1
 407.107421875 595.780273438 403.280273438 602.139648438 403.280273438 609.385742188 c 0
 403.280273438 613.178710938 404.338867188 616.7265625 406.17578125 619.75 c 0
 409.684570312 625.525390625 416.043945312 629.352539062 423.290039062 629.352539062 c 0
 427.083007812 629.352539062 430.630859375 628.293945312 433.654296875 626.45703125 c 0
 444.825195312 619.668945312 445.267578125 613.166992188 447.501953125 606.65625 c 0
 449.736328125 600.145507812 451.440429688 592.745117188 453.052734375 583.96875 c 0
 456.278320312 566.415039062 458.926757812 543.549804688 461.1328125 516.751953125 c 0
 465.544921875 463.15625 468.067382812 394.116210938 468.169921875 325.642578125 c 0
 468.271484375 257.168945312 465.975585938 189.454101562 460.509765625 138.123046875 c 0
 457.776367188 112.458007812 454.374023438 91.0419921875 449.46875 74.478515625 c 0
 447.015625 66.197265625 444.392578125 59.111328125 439.796875 52.400390625 c 0
 435.201171875 45.689453125 425.56640625 37.4150390625 413.328125 38.44140625 c 0
 353.530273438 43.4580078125 293.069335938 26.70703125 237.29296875 13.513671875 c 0
 209.404296875 6.9169921875 182.688476562 1.2041015625 156.97265625 0.462890625 c 0
 131.256835938 -0.2783203125 105.73828125 4.3388671875 84.171875 19.658203125 c 0
 32.1005859375 56.64453125 13.3486328125 128.017578125 20 227.98046875 c 0
 26.6513671875 327.943359375 58.3623046875 460.13671875 113.828125 629.234375 c 0
 116.032226562 635.952148438 121.709960938 641.102539062 128.7265625 642.57421875 c 1
EndSplineSet
EndChar

StartChar: V
Encoding: 86 86 28
Width: 459
Flags: HW
LayerCount: 2
Fore
SplineSet
439.188476562 641.947265625 m 1
 439.181640625 641.948242188 l 1
 446.108398438 638.858398438 451.055664062 630.625976562 451.055664062 620.965820312 c 0
 451.055664062 618.388671875 450.702148438 615.912109375 450.052734375 613.608398438 c 0
 417.58984375 497.73046875 346.284179688 254.831054688 214.044921875 23.603515625 c 0
 205.094726562 7.9599609375 191.490234375 -4.048828125 176.448242188 -2.3076171875 c 0
 161.407226562 -0.568359375 150.573242188 11.234375 141.4609375 25.22265625 c 0
 123.243164062 53.201171875 108.004882812 97.4248046875 92.1298828125 152.346679688 c 0
 60.37890625 262.192382812 29.53125 414.372070312 2.8125 541.814453125 c 0
 2.458984375 543.559570312 2.275390625 545.373046875 2.275390625 547.25390625 c 0
 2.275390625 557.5859375 7.9482421875 566.28515625 15.6337890625 568.805664062 c 0
 17.0380859375 569.245117188 18.498046875 569.47265625 20.01171875 569.47265625 c 0
 28.3310546875 569.47265625 35.3359375 562.426757812 37.365234375 552.880859375 c 0
 64.134765625 425.196289062 95.1337890625 273.333984375 125.814453125 167.192382812 c 0
 141.155273438 114.120117188 157.221679688 72.1416015625 169.494140625 53.29296875 c 0
 175.63671875 43.869140625 180.04296875 42.1845703125 179.708984375 42.224609375 c 0
 179.364257812 42.265625 179.975585938 40.59375 184.927734375 49.244140625 c 0
 313.817382812 274.618164062 383.946289062 513.220703125 416.153320312 628.18359375 c 0
 418.569335938 636.950195312 425.265625 643.247070312 433.138671875 643.247070312 c 0
 435.260742188 643.247070312 437.297851562 642.7890625 439.188476562 641.947265625 c 1
EndSplineSet
EndChar

StartChar: W
Encoding: 87 87 29
Width: 832
Flags: HW
LayerCount: 2
Fore
SplineSet
316.623046875 691.93359375 m 1
 316.623046875 691.93359375 l 1
 327.243164062 691.551757812 335.760742188 682.677734375 335.760742188 671.791992188 c 0
 335.760742188 671.637695312 335.758789062 671.483398438 335.754882812 671.330078125 c 0
 333.033203125 564.26953125 332.06640625 465.032226562 333.903320312 378.041015625 c 1
 409.934570312 464.877929688 485.29296875 552.094726562 550.986328125 619.751953125 c 0
 554.5859375 623.467773438 559.596679688 625.770507812 565.127929688 625.770507812 c 0
 570.508789062 625.770507812 575.392578125 623.588867188 578.967773438 620.048828125 c 2
 578.979492188 620.029296875 l 2
 582.634765625 616.372070312 584.90234375 611.282226562 584.90234375 605.662109375 c 0
 584.90234375 600.041992188 582.634765625 594.956054688 578.979492188 591.297851562 c 0
 506.638671875 516.795898438 421.434570312 416.892578125 335.676757812 319.423828125 c 1
 337.79296875 266.72265625 341.166015625 219.4921875 346.326171875 180.018554688 c 0
 353.784179688 122.961914062 365.705078125 81.3115234375 378.30859375 61.9052734375 c 0
 384.607421875 52.2021484375 389.928710938 48.7255859375 394.30078125 47.685546875 c 0
 398.668945312 46.6455078125 404.845703125 47.1953125 415.431640625 53.77734375 c 0
 600.265625 168.768554688 743.015625 475.076171875 784.372070312 595.873046875 c 0
 787.040039062 603.80859375 794.4453125 609.510742188 803.15234375 609.510742188 c 0
 805.478515625 609.510742188 807.7109375 609.102539062 809.786132812 608.354492188 c 0
 817.548828125 605.6171875 823.1171875 598.1171875 823.1171875 589.301757812 c 0
 823.1171875 587.033203125 822.748046875 584.852539062 822.067382812 582.817382812 c 0
 778.446289062 455.411132812 639.161132812 145.640625 435.9921875 19.2431640625 c 0
 419.678710938 9.095703125 402.020507812 4.4755859375 385.1640625 8.5029296875 c 0
 368.307617188 12.5244140625 355.010742188 24.4140625 345.185546875 39.5517578125 c 0
 325.532226562 69.83203125 314.713867188 115.173828125 306.920898438 174.786132812 c 0
 302.948242188 205.168945312 299.983398438 239.317382812 297.822265625 276.5703125 c 1
 236.850585938 208.158203125 176.506835938 143.0859375 121.232421875 91.5712890625 c 0
 108.41015625 79.6201171875 96.0673828125 70.8544921875 82.9677734375 65.7431640625 c 0
 69.8642578125 60.6318359375 55.056640625 59.576171875 42.1318359375 65.4453125 c 0
 29.2001953125 71.30859375 20.0029296875 82.73046875 13.8623046875 96.20703125 c 0
 7.736328125 109.677734375 3.9052734375 125.709960938 1.873046875 144.961914062 c 0
 -6.28125 221.962890625 11.77734375 352.041992188 64.1240234375 543.1171875 c 0
 66.380859375 551.732421875 74.1083984375 558.090820312 83.2919921875 558.090820312 c 0
 85.16015625 558.090820312 86.9677734375 557.828125 88.6806640625 557.336914062 c 0
 97.0224609375 554.952148438 103.146484375 547.166015625 103.146484375 537.930664062 c 0
 103.146484375 536.005859375 102.879882812 534.142578125 102.383789062 532.37890625 c 0
 50.6826171875 343.668945312 34.62890625 214.69921875 41.55859375 149.3125 c 0
 43.2841796875 132.966796875 46.3662109375 120.659179688 49.8310546875 113.037109375 c 0
 53.296875 105.415039062 56.5439453125 103.186523438 58.400390625 102.294921875 c 0
 60.2568359375 101.477539062 62.4521484375 101.046875 68.6796875 103.483398438 c 0
 74.916015625 105.916015625 83.9541015625 111.483398438 94.37890625 121.185546875 c 0
 155.9921875 178.610351562 225.278320312 254.880859375 295.205078125 334.122070312 c 1
 291.845703125 431.995117188 292.875976562 547.1171875 296.072265625 672.483398438 c 0
 296.443359375 683.280273438 305.173828125 691.940429688 315.887695312 691.940429688 c 0
 316.137695312 691.940429688 316.385742188 691.935546875 316.6328125 691.926757812 c 1
 316.623046875 691.93359375 l 1
EndSplineSet
EndChar

StartChar: X
Encoding: 88 88 30
Width: 546
Flags: HW
LayerCount: 2
Fore
SplineSet
506.103515625 642.966796875 m 0
 509.705078125 642.7578125 513.088867188 641.58203125 515.931640625 639.712890625 c 0
 521.372070312 636.13671875 524.934570312 629.970703125 524.934570312 622.979492188 c 0
 524.934570312 618.932617188 523.729492188 615.165039062 521.66015625 612.015625 c 0
 425.03515625 464.99609375 340.819335938 359.80078125 271.04296875 279.9609375 c 1
 295.603515625 237.435546875 319.109375 200.905273438 341.666015625 170.1953125 c 0
 410.024414062 77.1279296875 468.475585938 37.9072265625 521.376953125 32.478515625 c 0
 531.448242188 31.4453125 539.3359375 22.9453125 539.3359375 12.603515625 c 0
 539.3359375 11.9072265625 539.299804688 11.21875 539.23046875 10.541015625 c 0
 538.197265625 0.4697265625 529.697265625 -7.41796875 519.35546875 -7.41796875 c 0
 518.659179688 -7.41796875 517.970703125 -7.3818359375 517.29296875 -7.3125 c 0
 448.139648438 -0.2158203125 381.045898438 49.01171875 309.427734375 146.517578125 c 0
 287.907226562 175.81640625 265.838867188 209.719726562 243.06640625 248.40625 c 1
 226.693359375 230.203125 210.920898438 212.940429688 196.453125 197.431640625 c 0
 115.938476562 111.119140625 67.6201171875 62.6357421875 53.94140625 15.826171875 c 0
 51.5126953125 7.515625 43.8369140625 1.4384765625 34.7470703125 1.4384765625 c 0
 32.798828125 1.4384765625 30.9150390625 1.7177734375 29.134765625 2.23828125 c 0
 20.82421875 4.666015625 14.7470703125 12.3427734375 14.7470703125 21.4326171875 c 0
 14.7470703125 23.380859375 15.0263671875 25.263671875 15.546875 27.044921875 c 0
 33.833984375 89.6240234375 87.279296875 139.037109375 167.203125 224.716796875 c 0
 184.155273438 242.889648438 202.66796875 263.130859375 222.1484375 284.97265625 c 1
 175.124023438 369.370117188 124.951171875 474.129882812 70.072265625 602.65234375 c 0
 69.0439453125 605.059570312 68.451171875 607.71484375 68.451171875 610.49609375 c 0
 68.451171875 618.751953125 73.46484375 625.846679688 80.611328125 628.8984375 c 0
 83.01953125 629.926757812 85.6630859375 630.505859375 88.4453125 630.505859375 c 0
 89.2626953125 630.505859375 90.0693359375 630.45703125 90.861328125 630.361328125 c 0
 98.0673828125 629.4921875 104.110351562 624.797851562 106.859375 618.359375 c 0
 158.62890625 497.120117188 206.130859375 397.541015625 250.220703125 317.009765625 c 1
 317.240234375 394.450195312 396.848632812 494.936523438 488.234375 633.984375 c 0
 491.810546875 639.42578125 497.940429688 643.000976562 504.932617188 643.000976562 c 0
 505.325195312 643.000976562 505.715820312 642.989257812 506.103515625 642.966796875 c 0
EndSplineSet
EndChar

StartChar: Y
Encoding: 89 89 31
Width: 345
Flags: HW
LayerCount: 2
Fore
SplineSet
61.62890625 642.875 m 1
 61.62890625 642.875 l 1
 67.1162109375 642.419921875 73.9326171875 638.77734375 77.388671875 634.3046875 c 0
 80.8447265625 629.83203125 81.7607421875 625.736328125 82.224609375 622.505859375 c 2
 82.224609375 622.50390625 l 1
 95.876953125 527.422851562 94.0419921875 458.91015625 100.4609375 417.705078125 c 0
 103.670898438 397.102539062 108.646484375 384.569335938 115.75 376.90234375 c 0
 122.854492188 369.235351562 133.673828125 363.764648438 155.8359375 361.283203125 c 0
 172.84375 359.377929688 187.931640625 367.408203125 204.072265625 385.220703125 c 0
 220.213867188 403.033203125 235.0859375 429.807617188 246.927734375 457.40625 c 0
 270.61328125 512.603515625 282.646484375 570.072265625 282.646484375 570.072265625 c 2
 284.5390625 579.150390625 292.592773438 585.985351562 302.228515625 585.985351562 c 0
 313.114257812 585.985351562 321.981445312 577.26953125 322.224609375 566.44140625 c 0
 326.583984375 365.017578125 285.963867188 219.291992188 209.72265625 125.24609375 c 0
 133.482421875 31.2001953125 21.7197265625 -8.2255859375 -105.703125 1.416015625 c 0
 -116.028320312 2.197265625 -124.194335938 10.81640625 -124.194335938 21.3408203125 c 0
 -124.194335938 21.8544921875 -124.174804688 22.3642578125 -124.13671875 22.869140625 c 0
 -123.354492188 33.1943359375 -114.736328125 41.3603515625 -104.211914062 41.3603515625 c 0
 -103.698242188 41.3603515625 -103.189453125 41.3408203125 -102.685546875 41.302734375 c 0
 15.0859375 32.3916015625 110.831054688 66.7763671875 178.650390625 150.435546875 c 0
 229.125976562 212.698242188 264.151367188 303.940429688 277.0390625 427.146484375 c 1
 265.360351562 402.165039062 251.374023438 377.850585938 233.712890625 358.361328125 c 0
 212.642578125 335.108398438 184.225585938 317.854492188 151.384765625 321.533203125 c 0
 123.701171875 324.6328125 101.556640625 333.369140625 86.41015625 349.71484375 c 0
 71.2646484375 366.060546875 64.7080078125 387.346679688 60.9375 411.546875 c 0
 54.4208984375 453.3828125 55.302734375 507.737304688 47.15625 580.998046875 c 1
 42.439453125 574.498046875 38.6640625 569.083984375 38.6640625 569.083984375 c 2
 35.0771484375 563.708984375 28.94921875 560.197265625 22.0087890625 560.197265625 c 0
 17.912109375 560.197265625 14.1005859375 561.431640625 10.927734375 563.548828125 c 0
 5.5517578125 567.135742188 2.0390625 573.264648438 2.0390625 580.206054688 c 0
 2.0390625 584.303710938 3.2744140625 588.114257812 5.390625 591.287109375 c 2
 5.390625 591.287109375 15.1171875 605.935546875 25.77734375 619.044921875 c 0
 31.1083984375 625.599609375 36.076171875 631.637695312 43.169921875 636.88671875 c 0
 46.7177734375 639.510742188 50.65625 643.78515625 61.62890625 642.875 c 1
66.958984375 604.73046875 m 0
 67.138671875 604.86328125 67.078125 604.254882812 65.9140625 603.703125 c 1
 66.17578125 603.9453125 66.857421875 604.655273438 66.958984375 604.73046875 c 0
EndSplineSet
EndChar

StartChar: Z
Encoding: 90 90 32
Width: 520
Flags: HW
LayerCount: 2
Fore
SplineSet
238.25390625 642.943359375 m 0
 258.94140625 643.330078125 279.05859375 641.583984375 297.705078125 636.615234375 c 0
 334.999023438 626.677734375 367.2890625 599.392578125 374.00390625 555.369140625 c 0
 381.100585938 508.842773438 356.739257812 459.783203125 322.802734375 408.484375 c 0
 315.850585938 397.974609375 308.3203125 387.35546875 300.521484375 376.697265625 c 1
 360.802734375 388.421875 421.439453125 402.350585938 485.583984375 412.876953125 c 0
 486.64453125 413.05078125 487.71484375 413.122070312 488.825195312 413.122070312 c 0
 498.75390625 413.122070312 507.00390625 405.870117188 508.560546875 396.37890625 c 0
 508.734375 395.318359375 508.805664062 394.249023438 508.805664062 393.139648438 c 0
 508.805664062 383.2109375 501.553710938 374.961914062 492.0625 373.404296875 c 0
 414.72265625 360.711914062 340.4296875 342.07421875 263.802734375 328.986328125 c 1
 243.184570312 303.333984375 221.538085938 277.764648438 200.48046875 252.904296875 c 0
 157.556640625 202.228515625 117.109375 154.250976562 94.158203125 117.08984375 c 0
 82.6826171875 98.509765625 75.9287109375 82.53125 74.447265625 72.66015625 c 0
 72.9658203125 62.7890625 73.544921875 61.3876953125 79.1015625 57.43359375 c 0
 95.73046875 45.6005859375 126.740234375 39.41015625 164.0234375 40.05859375 c 0
 201.306640625 40.70703125 244.280273438 47.43359375 284.640625 56.251953125 c 0
 365.362304688 73.888671875 435.29296875 99.53515625 435.29296875 99.53515625 c 2
 437.440429688 100.32421875 439.76171875 100.76953125 442.181640625 100.76953125 c 0
 450.80078125 100.76953125 458.153320312 95.3056640625 460.962890625 87.65625 c 0
 461.751953125 85.5087890625 462.197265625 83.1875 462.197265625 80.767578125 c 0
 462.197265625 72.1484375 456.733398438 64.7958984375 449.083984375 61.986328125 c 2
 449.083984375 61.986328125 377.090820312 35.5068359375 293.1796875 17.173828125 c 0
 251.224609375 8.0068359375 206.203125 0.7861328125 164.71875 0.064453125 c 0
 123.234375 -0.6572265625 84.69921875 4.3583984375 55.912109375 24.841796875 c 0
 38.7607421875 37.0458984375 31.96875 59.1416015625 34.888671875 78.595703125 c 0
 37.80859375 98.0498046875 47.2275390625 117.223632812 60.126953125 138.109375 c 0
 85.92578125 179.880859375 127.043945312 228.092773438 169.958984375 278.7578125 c 0
 181.583984375 292.482421875 193.291015625 306.3671875 204.8828125 320.28125 c 1
 145.424804688 313.0390625 83.826171875 310.6953125 17.701171875 318.34765625 c 0
 7.75390625 319.499023438 -0.0009765625 327.940429688 -0.0009765625 338.194335938 c 0
 -0.0009765625 338.979492188 0.044921875 339.75390625 0.1328125 340.515625 c 0
 1.28515625 350.461914062 9.7265625 358.215820312 19.9794921875 358.215820312 c 0
 20.763671875 358.215820312 21.5380859375 358.169921875 22.298828125 358.08203125 c 0
 99.90625 349.100585938 171.546875 354.938476562 242.3046875 366.296875 c 1
 259.579101562 388.203125 275.723632812 409.81640625 289.44140625 430.552734375 c 0
 321.35546875 478.795898438 338.581054688 522.328125 334.4609375 549.337890625 c 0
 329.958984375 578.8515625 314.87109375 590.646484375 287.40625 597.96484375 c 0
 259.94140625 605.283203125 220.974609375 603.663085938 182.09765625 597.037109375 c 0
 104.344726562 583.784179688 27.693359375 552.357421875 27.693359375 552.357421875 c 2
 25.3466796875 551.389648438 22.7705078125 550.833007812 20.076171875 550.833007812 c 0
 11.732421875 550.833007812 4.5751953125 555.954101562 1.578125 563.220703125 c 0
 0.609375 565.568359375 0.0537109375 568.143554688 0.0537109375 570.838867188 c 0
 0.0537109375 579.181640625 5.1728515625 586.337890625 12.439453125 589.3359375 c 2
 12.439453125 589.3359375 91.6552734375 622.19921875 175.376953125 636.46875 c 0
 196.307617188 640.036132812 217.56640625 642.556640625 238.25390625 642.943359375 c 0
EndSplineSet
EndChar
